<?xml version="1.0" encoding="UTF-8"?>
<svg id="Capa_2" data-name="Capa 2" xmlns="http://www.w3.org/2000/svg" viewBox="0 0 398.95 274.99">
  <defs>
    <style>
      .cls-1 {
        fill: #db0812;
      }
    </style>
  </defs>
  <g id="Capa_1-2" data-name="Capa 1">
    <g>
      <g>
        <path class="cls-1" d="M67.78,274.99c29.94,0,52.99-6.98,69.12-20.95,16.14-13.97,24.21-34.37,24.21-61.19,0-16.81-4.8-29.95-14.39-39.4-9.59-9.46-23.72-14.18-42.36-14.18v-4.82c9.06,0,16.97-1.58,23.74-4.73,6.77-3.15,11.97-7.35,15.6-12.61,3.63-5.25,6.3-10.82,8-16.69,1.7-5.87,2.55-12.02,2.55-18.45,0-24.48-7.58-44.25-22.73-59.34C116.37,7.54,95.66,0,69.39,0c-13.09,0-26.25,2.47-39.47,7.42C16.7,12.36,5.51,20.52,0,24.14v101.58h4.17c18.2-23.12,41.2-34.68,64.69-34.68,19.45,0,29.18,3.83,29.18,11.5,0,4.7-2.4,7.82-7.19,9.36-4.8,1.55-14.05,2.32-27.77,2.32h-18.42v47.1h18.42c14.26,0,23.91.59,28.98,1.76,5.06,1.18,7.6,3.74,7.6,7.7,0,4.08-2.89,7.45-8.67,10.11-5.78,2.66-13.78,3.99-24.01,3.99-22.32,0-43.26-11.5-62.8-34.49H0v101.8c5.83,5.56,15.08,10.75,27.77,15.58,12.69,4.82,26.02,7.23,40.01,7.23Z"/>
        <path class="cls-1" d="M160.67,4.45v95.97s126.52-21.95,126.52-21.95v4.46c-14.75,3.97-27.9,9.8-39.45,17.48-11.56,7.69-21.07,16.43-28.53,26.22-7.46,9.8-13.62,20.95-18.48,33.48-4.86,12.52-8.3,25.23-10.32,38.13-2.02,12.9-3.04,26.66-3.04,41.29,0,9.55.58,20.09,1.75,31.62h76.75c-4.77-19.46-7.15-41.16-7.15-65.09,0-9.42.47-18.38,1.42-26.87.94-8.49,2.63-17.23,5.06-26.22,2.43-8.99,5.53-17.08,9.31-24.27,3.78-7.19,8.79-13.79,15.04-19.81,6.25-6.01,13.37-10.69,21.38-14.04V4.45s-150.26,0-150.26,0Z"/>
      </g>
      <g>
        <path class="cls-1" d="M380.57,247.33v10.34c0,.26-.26.53-.61.53h-45.94c-.53,0-.96.35-.96.87v14.79c0,.61.7,1.14,1.22,1.14h63.27c.61,0,1.14-.44,1.14-.96v-26.7c0-.52-.44-.96-.96-.96h-16.28c-.44,0-.87.35-.87.96Z"/>
        <path class="cls-1" d="M380.57,210.92v15.14c0,.26-.26.53-.61.53h-5.16c-.44,0-.7-.26-.7-.61v-9.4c0-.35-.35-.7-.79-.7h-15.93c-.35,0-.61.26-.61.61v9.23c0,.26-.26.61-.61.61h-4.9c-.35,0-.61-.26-.61-.61v-14.61c0-.52-.35-.96-.87-.96h-15.75c-.53,0-.96.35-.96.88v31.07c0,.61.61,1.14,1.14,1.14h63.36c.61,0,1.14-.44,1.14-.96v-31.33c0-.53-.44-.96-.96-.96h-16.28c-.44,0-.87.35-.87.96Z"/>
        <path class="cls-1" d="M333.05,167.5v13.13c0,.61.53,1.05,1.14,1.05h19.51c.79,0,1.14.26,1.14.52,0,.18-.35.44-1.05.61l-19.69,5.25c-.7.17-1.05.61-1.05,1.23v14.79c0,.52.53.96,1.14.96h63.27c.7,0,1.23-.35,1.23-.88v-13.3c0-.61-.53-1.14-1.14-1.14h-15.49c-.88,0-1.23-.17-1.23-.44,0-.26.35-.61,1.23-.79l15.75-3.85c.52-.09.87-.61.87-.96v-16.36c0-.61-.53-.96-1.14-.96h-63.27c-.61,0-1.22.44-1.22,1.14Z"/>
        <path class="cls-1" d="M333.05,84.11v14.79c0,.53.44.96.87.96h44.63c1.05,0,1.84.44,1.84,1.49,0,1.05-.79,1.49-1.93,1.49h-44.45c-.61,0-.96.44-.96.96v14.88c0,.53.35.87.96.87h46.82c9.19,0,17.85-6.56,17.85-18.2,0-11.55-8.58-18.2-17.85-18.2h-46.91c-.61,0-.87.53-.87.96Z"/>
        <path class="cls-1" d="M334.19,52.07c-.61.09-1.14.52-1.14,1.14v17.06c0,.53.61.96,1.05,1.05l63.09,11.73c.88.17,1.49-.26,1.49-1.05v-14.44c0-.44-.35-1.05-.96-1.14l-12.86-1.66c-.53-.09-.87-.44-.87-.79v-4.73c0-.44.26-.79.7-.87l13.13-1.75c.53-.09.87-.61.87-1.14v-14.18c0-.96-.96-1.4-1.93-1.23l-62.57,11.99ZM375.23,62.74c0,.44-.44.61-.88.53l-8.31-1.14c-1.4-.18-2.01-.35-2.01-.61,0-.26.79-.44,2.01-.61l8.4-1.14c.79-.09.79.18.79,2.98Z"/>
        <path class="cls-1" d="M350.11,22.2c0-1.22,1.05-2.1,3.15-2.63.7-.17.96-.52.96-1.05l-.61-13.39c0-.7-.53-1.05-1.14-1.05-10.41,0-19.6,7.26-19.6,18.99,0,11.73,9.71,18.38,18.64,18.38,5.95,0,12.51-2.89,17.24-8.75,4.73-5.86,8.58-10.76,10.68-10.76,2.01,0,2.8.79,2.8,2.01,0,2.1-3.76,3.59-7.26,3.94-.79.09-1.14.44-1.14,1.05l.61,12.08c0,.7.44,1.05.88,1.05,14,0,23.63-6.13,23.63-19.43,0-11.46-9.36-18.46-21.09-18.46-6.48,0-12.78,4.29-16.63,9.98-3.59,5.25-6.74,9.36-9.54,9.36-.87,0-1.57-.44-1.57-1.31Z"/>
        <path class="cls-1" d="M353.2,142.38h4.65c1.05,0,1.74-.78,1.74-1.57l-.61-16.02c0-.78-.26-.78-2.62-.78-12.56,0-23.37,6.72-23.37,19.45,0,11.95,9.24,19.36,25.12,19.36h17.36c12.47,0,23.37-6.8,23.37-18.93,0-3.96-.95-7.61-3.13-10.66h2.15c.54,0,.98-.44.98-.98v-7.24c0-.54-.44-.98-.98-.98h-33.28c-.54,0-.98.44-.98.98v.03s0,7.2,0,7.2v11.06c0,.54.44.98.98.98h9.68c.54,0,.98-.44.98-.98v-2.12s3.26,0,3.26,0c1.31,0,2.37,1.06,2.37,2.37,0,1.31-1.06,2.37-2.37,2.37h-1.2s-24.1,0-24.1,0h-.9s-.04,0-.04,0c-.06,0-.11-.01-.17-.02-.06,0-.11,0-.17-.02,0,0-.01,0-.02,0-.79-.18-1.39-.89-1.39-1.74,0-.98.8-1.78,1.78-1.78h.05s.85,0,.85,0Z"/>
      </g>
    </g>
  </g>
</svg>