<?xml version="1.0" encoding="UTF-8"?>
<svg id="Capa_2" data-name="Capa 2" xmlns="http://www.w3.org/2000/svg" viewBox="0 0 3753.59 91.04">
  <defs>
    <style>
      .cls-1 {
        fill: #db0e17;
      }
    </style>
  </defs>
  <g id="Capa_1-2" data-name="Capa 1">
    <path class="cls-1" d="M3750.5,0h-2.01c-3.68,1.39-4.5,6.37-8.72,6.6-4.53.24-4.37-5.66-7.97-6.18-5.01-.72-4.67,5.74-9.61,5.9-4.63.16-4.38-5.14-8.12-5.81-6.95-1.25-4.14,4-8.6,5.14-5.9,1.52-6.44-5.19-10.57-5.23-2.86-.04-2.56,1.78-3.82,3.35-2.05,2.58-5.89,3.95-8.8,1.94-2.38-1.63-2.07-4.83-5.46-4.91-4.14-.09-3.1,2.11-5.21,3.96-1.85,1.62-5.06,2.13-7.24.81-1.58-.97-2.09-3.94-3.41-4.52-.94-.42-4.78-.31-5.51.29-.33.26-.65,1.62-1.13,2.23-1.79,2.27-3.66,3.31-6.71,2.69-3.24-.65-3.94-4.99-6.13-5.39-6.03-1.13-4.19,2.02-6.23,4.09-.96.97-3.23,1.47-4.59,1.43-4.92-.11-5.33-6.44-9.54-5.84-2.3.33-1.89,1.68-2.94,3.04-1.87,2.45-6.97,3.99-9.42,1.82-2.25-1.97-.75-4.61-5.36-4.39-3.09.15-2.64,2.72-4.93,4.12-2.04,1.24-5.76,1.36-7.57-.31-2.52-2.33-.81-4.69-6.45-3.96-2.82.37-2.36,3.8-4.38,5.13-2.1,1.38-5.87.9-7.82-.6-2.2-1.7-.99-4.35-4.63-4.52-4.28-.21-4.86,5.3-9.62,5.15-4.84-.14-4.94-6.18-9.56-5.42-3.6.58-4.09,5.99-8.53,5.84-4.58-.14-5.93-6.47-10.34-5.84-4.07.58-3.48,7.02-9.24,5.74-4.11-.91-1.98-6.25-8.55-5.43-3.98.5-3.44,7.16-9.02,5.73-3.56-.92-3.78-5.99-7.84-6.11-5.15-.16-7.31,8.76-13.8,4.12-1.33-.95-2.11-2.78-3.68-3.46-6.98-3-6.79,5.3-12.21,5.2-3.46-.06-4.77-5.37-8.77-5.3-4.59.07-3.38,5.85-8.49,5.8-4.59-.04-4.33-5.33-8.46-5.54-3.32-.17-2.74,1.52-4.19,3.35-1.71,2.16-4.13,2.81-6.84,2-3.06-.92-2.54-5.36-7.84-4.96-3.72.28-3.24,5.3-8.41,5.17-5.17-.13-5.23-5.4-9.35-5.85-3.75-.4-2.84,2.02-5.11,3.85-2.1,1.69-4.73,2.06-7.16.75-2.14-1.14-2.65-4.48-5.31-4.64-.6-.03-2.75.41-3.22.74-.98.7-1.28,3.22-2.41,3.93-.64.4-3.15.84-3.97.85-5,.08-4.21-4.49-8.15-5.06-5.34-.77-4.83,5.71-9.92,5.86-5.27.16-4.84-5.54-8.48-5.91-3.91-.4-3.79,1.11-5.57,3.15-1.75,2-3.73,2.73-6.45,2.37-2.99-.4-3.7-5.18-6.91-5.82-4.98-1-4.61,4.26-7.61,4.94-5.85,1.31-4.63-5.24-9.15-5.05-2.99.13-3.55,3.65-5.43,4.93-1.05.7-2.51.89-3.77,1.32-2.72-.6-3.31-4.78-5.95-5.35-4.93-1.06-5.22,7.32-12.33,5.02-4.24-1.37-2.99-5.68-8.07-5.09-4.09.48-2.55,6.57-8.55,4.85-3.69-1.06-3.86-5.56-8.3-5.25-3.21.22-4.34,4.84-7.31,5.44-5.87,1.17-6.64-5.53-9.66-6.12-3.54-.7-4.27,2.93-6.54,4.42-5.32,3.5-7.6-2.73-11.63-4.87h-2.01c-3.68,1.38-4.5,6.37-8.72,6.59-4.53.25-4.37-5.65-7.97-6.17-5-.73-4.66,5.73-9.61,5.9-4.63.15-4.38-5.14-8.12-5.81-6.94-1.25-4.14,3.99-8.6,5.14-5.9,1.51-6.44-5.19-10.57-5.24-2.85-.03-2.56,1.78-3.82,3.36-2.05,2.57-5.88,3.94-8.8,1.94-2.38-1.63-2.07-4.84-5.46-4.92-4.14-.09-3.1,2.12-5.21,3.97-1.85,1.61-5.06,2.13-7.23.8-1.59-.97-2.09-3.94-3.42-4.52-.94-.41-4.78-.3-5.51.3-.33.26-.65,1.62-1.13,2.23-1.79,2.26-3.66,3.3-6.71,2.69-3.24-.66-3.94-4.99-6.13-5.4-6.03-1.13-4.19,2.03-6.23,4.09-.96.98-3.23,1.47-4.59,1.44-4.92-.11-5.33-6.44-9.54-5.84-2.3.33-1.89,1.68-2.94,3.04-1.87,2.44-6.97,3.98-9.42,1.82-2.24-1.98-.75-4.62-5.35-4.39-3.1.15-2.64,2.71-4.94,4.11-2.04,1.24-5.76,1.36-7.57-.31-2.52-2.32-.81-4.69-6.45-3.95-2.81.36-2.36,3.8-4.38,5.13-2.1,1.38-5.87.9-7.82-.6-2.2-1.7-.99-4.35-4.63-4.53-4.28-.2-4.86,5.3-9.62,5.16-4.84-.15-4.94-6.19-9.56-5.43-3.6.59-4.09,5.99-8.53,5.85-4.57-.15-5.93-6.48-10.34-5.85-4.07.58-3.47,7.03-9.24,5.74-4.1-.91-1.98-6.24-8.55-5.42-3.98.49-3.44,7.16-9.01,5.72-3.56-.91-3.79-5.99-7.85-6.11-5.15-.15-7.31,8.76-13.8,4.13-1.33-.95-2.11-2.79-3.68-3.46-6.98-3-6.79,5.29-12.21,5.2-3.46-.06-4.77-5.37-8.77-5.31-4.59.07-3.38,5.86-8.49,5.81-4.59-.05-4.33-5.34-8.46-5.55-3.32-.17-2.74,1.53-4.19,3.36-1.71,2.16-4.13,2.81-6.84,1.99-3.06-.92-2.54-5.36-7.84-4.95-3.71.28-3.24,5.29-8.41,5.16-5.16-.13-5.23-5.39-9.35-5.84-3.75-.41-2.84,2.02-5.11,3.85-2.1,1.69-4.72,2.06-7.16.75-2.13-1.15-2.65-4.49-5.31-4.64-.6-.04-2.75.4-3.22.74-.97.69-1.28,3.22-2.4,3.92-.64.4-3.15.84-3.98.86-5,.07-4.21-4.5-8.15-5.07-5.34-.77-4.83,5.72-9.91,5.87-5.28.16-4.85-5.55-8.49-5.92-3.91-.4-3.78,1.12-5.57,3.15-1.75,2-3.73,2.74-6.45,2.37-2.99-.4-3.7-5.18-6.91-5.82-4.98-.99-4.61,4.27-7.6,4.94-5.86,1.32-4.64-5.24-9.16-5.04-2.05.08-2.95,1.76-3.93,3.22-1.23.68-2.17,1.8-3.43,2.5-.71.2-1.44.37-2.1.62-.4.03-.82.03-1.3-.04-2.89-.43-3.44-4.82-6.15-5.4-4.93-1.07-5.21,7.32-12.33,5.02-4.23-1.38-2.98-5.69-8.07-5.09-4.09.47-2.54,6.57-8.54,4.85-3.7-1.06-3.86-5.56-8.31-5.25-3.21.22-4.34,4.84-7.31,5.43-5.86,1.18-6.63-5.52-9.65-6.12-3.54-.7-4.28,2.94-6.55,4.43-5.32,3.5-7.6-2.73-11.63-4.88h-2c-3.68,1.39-4.51,6.37-8.73,6.6-4.53.24-4.37-5.66-7.97-6.18-5-.72-4.66,5.74-9.6,5.91-4.64.15-4.38-5.14-8.13-5.82-6.94-1.25-4.14,4-8.6,5.15-5.89,1.51-6.44-5.2-10.57-5.24-2.85-.03-2.56,1.78-3.81,3.35-2.06,2.58-5.89,3.95-8.8,1.95-2.38-1.64-2.07-4.84-5.46-4.92-4.14-.09-3.11,2.11-5.22,3.96-1.85,1.62-5.06,2.13-7.23.81-1.59-.97-2.09-3.94-3.42-4.52-.94-.42-4.77-.31-5.51.29-.32.27-.65,1.62-1.13,2.24-1.78,2.26-3.66,3.3-6.7,2.68-3.25-.65-3.95-4.99-6.13-5.39-6.04-1.13-4.2,2.02-6.24,4.09-.96.97-3.22,1.47-4.58,1.44-4.93-.12-5.33-6.45-9.55-5.84-2.3.33-1.89,1.67-2.93,3.04-1.88,2.44-6.97,3.98-9.43,1.81-2.24-1.97-.74-4.61-5.35-4.39-3.09.15-2.64,2.72-4.94,4.12-2.03,1.24-5.75,1.36-7.57-.31-2.52-2.33-.81-4.69-6.44-3.96-2.82.37-2.36,3.8-4.39,5.13-2.09,1.38-5.87.9-7.81-.6-2.21-1.7-1-4.35-4.63-4.52-4.29-.21-4.87,5.3-9.63,5.15-4.84-.14-4.94-6.18-9.56-5.42-3.6.59-4.09,5.99-8.52,5.85-4.58-.15-5.94-6.48-10.34-5.85-4.08.58-3.48,7.02-9.25,5.74-4.1-.91-1.98-6.25-8.54-5.43-3.99.5-3.44,7.16-9.02,5.73-3.56-.91-3.79-5.99-7.84-6.11-5.16-.15-7.31,8.76-13.81,4.12-1.33-.95-2.1-2.78-3.68-3.46-6.98-3-6.78,5.3-12.21,5.2-3.46-.06-4.77-5.37-8.76-5.3-4.59.07-3.38,5.85-8.5,5.8-4.59-.04-4.32-5.33-8.45-5.54-3.32-.17-2.74,1.52-4.2,3.36-1.71,2.15-4.13,2.8-6.84,1.99-3.06-.92-2.54-5.36-7.84-4.96-3.71.28-3.24,5.3-8.41,5.17-5.16-.13-5.23-5.4-9.34-5.84-3.75-.41-2.84,2.01-5.12,3.85-2.09,1.68-4.72,2.06-7.16.74-2.13-1.14-2.64-4.48-5.3-4.64-.6-.03-2.75.41-3.22.74-.98.7-1.29,3.22-2.41,3.93-.64.4-3.15.84-3.98.85-5,.08-4.21-4.49-8.14-5.06-5.34-.77-4.84,5.71-9.92,5.86-5.27.16-4.84-5.54-8.49-5.91-3.91-.4-3.78,1.12-5.56,3.15-1.76,2-3.73,2.73-6.45,2.37-2.99-.4-3.71-5.18-6.91-5.82-4.98-1-4.61,4.26-7.61,4.94-5.85,1.31-4.64-5.24-9.15-5.05-3,.13-3.56,3.65-5.44,4.93-1.04.71-2.5.89-3.77,1.32-2.71-.6-3.3-4.78-5.95-5.35-4.93-1.06-5.21,7.32-12.32,5.02-4.24-1.37-2.99-5.68-8.08-5.09-4.09.48-2.54,6.57-8.54,4.85-3.7-1.05-3.86-5.56-8.3-5.25-3.22.22-4.35,4.85-7.32,5.44-5.86,1.17-6.63-5.53-9.65-6.12-3.54-.7-4.28,2.93-6.55,4.43-5.31,3.49-7.6-2.74-11.63-4.88h-2c-3.68,1.38-4.51,6.37-8.73,6.59-4.52.25-4.37-5.65-7.96-6.17-5.01-.73-4.67,5.73-9.61,5.9-4.63.16-4.38-5.14-8.13-5.81-6.94-1.25-4.14,4-8.6,5.14-5.89,1.51-6.44-5.19-10.57-5.24-2.85-.03-2.56,1.78-3.81,3.36-2.06,2.58-5.89,3.94-8.8,1.94-2.38-1.63-2.07-4.84-5.46-4.91-4.14-.1-3.1,2.11-5.22,3.96-1.85,1.61-5.05,2.13-7.23.8-1.59-.97-2.09-3.94-3.42-4.52-.93-.41-4.77-.3-5.51.3-.32.26-.65,1.62-1.13,2.23-1.78,2.27-3.65,3.3-6.7,2.69-3.25-.66-3.95-4.99-6.13-5.4-6.04-1.13-4.2,2.03-6.24,4.09-.96.98-3.22,1.47-4.58,1.44-4.93-.11-5.33-6.44-9.54-5.84-2.3.33-1.9,1.68-2.94,3.04-1.87,2.44-6.97,3.99-9.43,1.82-2.24-1.98-.74-4.61-5.35-4.39-3.09.15-2.64,2.71-4.94,4.11-2.03,1.24-5.75,1.36-7.57-.31-2.52-2.32-.81-4.69-6.44-3.95-2.82.37-2.36,3.8-4.38,5.13-2.1,1.38-5.87.9-7.82-.6-2.21-1.7-1-4.35-4.63-4.53-4.29-.2-4.87,5.3-9.63,5.16-4.83-.15-4.93-6.18-9.56-5.43-3.59.59-4.09,5.99-8.52,5.85-4.58-.15-5.93-6.48-10.34-5.85-4.08.58-3.48,7.03-9.25,5.74-4.1-.91-1.97-6.24-8.54-5.42-3.99.49-3.44,7.16-9.02,5.72-1.68-.43-2.62-1.78-3.56-3.11v-2.03c-.96-.95-1.96-1.88-3.09-2.48h-2.01c-2.7,1.02-3.86,3.97-5.96,5.56-.07.05-.14.1-.21.16-.71.49-1.53.83-2.55.88-4.53.24-4.37-5.66-7.97-6.18-1.68-.24-2.76.33-3.64,1.2-2.42.53-3.55,3.11-5.42,4.63-.18.03-.35.06-.55.06-4.63.16-4.38-5.14-8.12-5.81-4.09-.73-4.8.78-5.6,2.38-.72.58-1.21,1.4-1.72,2.22-.35.23-.76.41-1.28.55-5.9,1.52-6.44-5.19-10.57-5.23-2.2-.03-2.53,1.04-3.14,2.24-.67.37-.91,1.02-1.29,1.77-2.14,2.13-5.55,3.1-8.19,1.27-2.38-1.63-2.07-4.83-5.46-4.91-4.14-.09-3.1,2.11-5.21,3.96-1.85,1.62-5.06,2.13-7.24.81-1.58-.97-2.09-3.94-3.41-4.52-.94-.42-4.78-.31-5.51.29-.33.26-.65,1.62-1.13,2.23-1.79,2.27-3.66,3.31-6.71,2.69-3.24-.65-3.94-4.99-6.13-5.39-6.03-1.13-4.19,2.02-6.23,4.09-.96.97-3.23,1.47-4.59,1.43-4.92-.11-5.33-6.44-9.54-5.84-2.3.33-1.89,1.68-2.94,3.04-1.87,2.45-6.97,3.99-9.42,1.82-2.25-1.97-.75-4.61-5.36-4.39-3.09.15-2.64,2.72-4.93,4.12-2.04,1.24-5.76,1.36-7.57-.31-2.52-2.33-.81-4.69-6.45-3.96-2.82.37-2.36,3.8-4.38,5.13-2.1,1.38-5.87.9-7.82-.6-2.2-1.7-.99-4.35-4.63-4.52-4.28-.21-4.86,5.3-9.62,5.15-4.84-.14-4.94-6.18-9.56-5.42-3.6.58-4.09,5.99-8.53,5.84-4.58-.14-5.93-6.47-10.34-5.84-4.07.58-3.48,7.02-9.24,5.74-4.11-.91-1.98-6.25-8.55-5.43-3.98.5-3.44,7.16-9.02,5.73-3.56-.92-3.78-5.99-7.84-6.11-5.15-.16-7.31,8.76-13.8,4.12-1.33-.95-2.11-2.78-3.68-3.46-6.98-3-6.79,5.3-12.21,5.2-3.46-.06-4.77-5.37-8.77-5.3-4.59.07-3.38,5.85-8.49,5.8-4.59-.04-4.33-5.33-8.46-5.54-3.32-.17-2.74,1.52-4.19,3.35-1.71,2.16-4.13,2.81-6.84,2-3.06-.92-2.54-5.36-7.84-4.96-3.72.28-3.24,5.3-8.41,5.17-5.17-.13-5.23-5.4-9.35-5.85-3.75-.4-2.84,2.02-5.11,3.85-2.1,1.69-4.73,2.06-7.16.75-2.14-1.14-2.65-4.48-5.31-4.64-.6-.03-2.75.41-3.22.74-.98.7-1.28,3.22-2.41,3.93-.64.4-3.15.84-3.97.85-5,.08-4.21-4.49-8.15-5.06-5.34-.77-4.83,5.71-9.92,5.86-5.27.16-4.84-5.54-8.48-5.91-3.91-.4-3.79,1.11-5.57,3.15-1.75,2-3.73,2.73-6.45,2.37-2.99-.4-3.7-5.18-6.91-5.82-4.98-1-4.61,4.26-7.61,4.94-5.85,1.31-4.63-5.24-9.15-5.05-2.99.13-3.55,3.65-5.43,4.93-1.05.7-2.51.89-3.77,1.32-2.72-.6-3.31-4.78-5.95-5.35-4.93-1.06-5.22,7.32-12.33,5.02-4.24-1.37-2.99-5.68-8.07-5.09-4.09.48-2.55,6.57-8.55,4.85-3.69-1.06-3.86-5.56-8.3-5.25-3.21.22-4.34,4.84-7.31,5.44-5.87,1.17-6.64-5.53-9.66-6.12-3.54-.7-4.27,2.93-6.54,4.42-5.32,3.5-7.6-2.73-11.63-4.87h-2.01c-3.68,1.38-4.5,6.37-8.72,6.59-4.53.25-4.37-5.65-7.97-6.17-5-.73-4.66,5.73-9.61,5.9-4.63.15-4.38-5.14-8.12-5.81-6.94-1.25-4.14,3.99-8.6,5.14-5.9,1.51-6.44-5.19-10.57-5.24-2.85-.03-2.56,1.78-3.82,3.36-2.05,2.57-5.88,3.94-8.8,1.94-2.38-1.63-2.07-4.84-5.46-4.92-4.14-.09-3.1,2.12-5.21,3.97-1.85,1.61-5.06,2.13-7.23.8-1.59-.97-2.09-3.94-3.42-4.52-.94-.41-4.78-.3-5.51.3-.33.26-.65,1.62-1.13,2.23-1.79,2.26-3.66,3.3-6.71,2.69-3.24-.66-3.94-4.99-6.13-5.4-6.03-1.13-4.19,2.03-6.23,4.09-.96.98-3.23,1.47-4.59,1.44-4.92-.11-5.33-6.44-9.54-5.84-2.3.33-1.89,1.68-2.94,3.04-1.87,2.44-6.97,3.98-9.42,1.82-2.24-1.98-.75-4.62-5.35-4.39-3.1.15-2.64,2.71-4.94,4.11-2.04,1.24-5.76,1.36-7.57-.31-2.52-2.32-.81-4.69-6.45-3.95-2.81.36-2.36,3.8-4.38,5.13-2.1,1.38-5.87.9-7.82-.6-2.2-1.7-.99-4.35-4.63-4.53-4.28-.2-4.86,5.3-9.62,5.16-4.84-.15-4.94-6.19-9.56-5.43-3.6.59-4.09,5.99-8.53,5.85-4.57-.15-5.93-6.48-10.34-5.85-4.07.58-3.47,7.03-9.24,5.74-4.1-.91-1.98-6.24-8.55-5.42-3.98.49-3.44,7.16-9.01,5.72-3.56-.91-3.79-5.99-7.85-6.11-5.15-.15-7.31,8.76-13.8,4.13-1.33-.95-2.11-2.79-3.68-3.46-6.98-3-6.79,5.29-12.21,5.2-3.46-.06-4.77-5.37-8.77-5.31-4.59.07-3.38,5.86-8.49,5.81-4.59-.05-4.33-5.34-8.46-5.55-3.32-.17-2.74,1.53-4.19,3.36-1.71,2.16-4.13,2.81-6.84,1.99-3.06-.92-2.54-5.36-7.84-4.95-3.71.28-3.24,5.29-8.41,5.16-5.16-.13-5.23-5.39-9.35-5.84-3.75-.41-2.84,2.02-5.11,3.85-2.1,1.69-4.72,2.06-7.16.75-2.13-1.15-2.65-4.49-5.31-4.64-.6-.04-2.75.4-3.22.74-.97.69-1.28,3.22-2.4,3.92-.64.4-3.15.84-3.98.86-5,.07-4.21-4.5-8.15-5.07-5.34-.77-4.83,5.72-9.91,5.87-5.28.16-4.85-5.55-8.49-5.92-3.91-.4-3.78,1.12-5.57,3.15-1.75,2-3.73,2.74-6.45,2.37-2.99-.4-3.7-5.18-6.91-5.82-4.98-.99-4.61,4.27-7.6,4.94-5.86,1.32-4.64-5.24-9.16-5.04-2.05.08-2.95,1.76-3.93,3.22-1.23.68-2.17,1.8-3.43,2.5-.71.2-1.44.37-2.1.62-.4.03-.82.03-1.3-.04-2.89-.43-3.44-4.82-6.15-5.4-4.93-1.07-5.21,7.32-12.33,5.02-4.23-1.38-2.98-5.69-8.07-5.09-4.09.47-2.54,6.57-8.54,4.85-3.7-1.06-3.86-5.56-8.31-5.25-3.21.22-4.34,4.84-7.31,5.43-5.86,1.18-6.63-5.52-9.65-6.12-3.54-.7-4.28,2.94-6.55,4.43-5.32,3.5-7.6-2.73-11.63-4.88h-2c-3.68,1.39-4.51,6.37-8.73,6.6-4.53.24-4.37-5.66-7.97-6.18-5-.72-4.66,5.74-9.6,5.91-4.64.15-4.38-5.14-8.13-5.82-6.94-1.25-4.14,4-8.6,5.15-5.89,1.51-6.44-5.2-10.57-5.24-2.85-.03-2.56,1.78-3.81,3.35-2.06,2.58-5.89,3.95-8.8,1.95-2.38-1.64-2.07-4.84-5.46-4.92-4.14-.09-3.11,2.11-5.22,3.96-1.85,1.62-5.06,2.13-7.23.81-1.59-.97-2.09-3.94-3.42-4.52-.94-.42-4.77-.31-5.51.29-.32.27-.65,1.62-1.13,2.24-1.78,2.26-3.66,3.3-6.7,2.68-3.25-.65-3.95-4.99-6.13-5.39-6.04-1.13-4.2,2.02-6.24,4.09-.96.97-3.22,1.47-4.58,1.44-4.93-.12-5.33-6.45-9.55-5.84-2.3.33-1.89,1.67-2.93,3.04-1.88,2.44-6.97,3.98-9.43,1.81-2.24-1.97-.74-4.61-5.35-4.39-3.09.15-2.64,2.72-4.94,4.12-2.03,1.24-5.75,1.36-7.57-.31-2.52-2.33-.81-4.69-6.44-3.96-2.82.37-2.36,3.8-4.39,5.13-2.09,1.38-5.87.9-7.81-.6-2.21-1.7-1-4.35-4.63-4.52-4.29-.21-4.87,5.3-9.63,5.15-4.84-.14-4.94-6.18-9.56-5.42-3.6.59-4.09,5.99-8.52,5.85-4.58-.15-5.94-6.48-10.34-5.85-4.08.58-3.48,7.02-9.25,5.74-4.1-.91-1.98-6.25-8.54-5.43-3.99.5-3.44,7.16-9.02,5.73-3.56-.91-3.79-5.99-7.84-6.11-5.16-.15-7.31,8.76-13.81,4.12-1.33-.95-2.1-2.78-3.68-3.46-6.98-3-6.78,5.3-12.21,5.2-3.46-.06-4.77-5.37-8.76-5.3-4.59.07-3.38,5.85-8.5,5.8-4.59-.04-4.32-5.33-8.45-5.54-3.32-.17-2.74,1.52-4.2,3.36-1.71,2.15-4.13,2.8-6.84,1.99-3.06-.92-2.54-5.36-7.84-4.96-3.71.28-3.24,5.3-8.41,5.17-5.16-.13-5.23-5.4-9.34-5.84-3.75-.41-2.84,2.01-5.12,3.85-2.09,1.68-4.72,2.06-7.16.74-2.13-1.14-2.64-4.48-5.3-4.64-.6-.03-2.75.41-3.22.74-.98.7-1.29,3.22-2.41,3.93-.64.4-3.15.84-3.98.85-5,.08-4.21-4.49-8.14-5.06-5.34-.77-4.84,5.71-9.92,5.86-5.27.16-4.84-5.54-8.49-5.91-3.91-.4-3.78,1.12-5.56,3.15-1.76,2-3.73,2.73-6.45,2.37-2.99-.4-3.71-5.18-6.91-5.82-4.98-1-4.61,4.26-7.61,4.94-5.85,1.31-4.64-5.24-9.15-5.05-3,.13-3.56,3.65-5.44,4.93-1.04.71-2.5.89-3.77,1.32-2.71-.6-3.3-4.78-5.95-5.35-4.93-1.06-5.21,7.32-12.32,5.02-4.24-1.37-2.99-5.68-8.08-5.09-4.09.48-2.54,6.57-8.54,4.85-3.7-1.05-3.86-5.56-8.3-5.25-3.22.22-4.35,4.85-7.32,5.44-5.86,1.17-6.63-5.53-9.65-6.12-3.54-.7-4.28,2.93-6.55,4.43-5.31,3.49-7.6-2.74-11.63-4.88h-2c-3.68,1.38-4.51,6.37-8.73,6.59-4.52.25-4.37-5.65-7.96-6.17-5.01-.73-4.67,5.73-9.61,5.9-4.63.16-4.38-5.14-8.13-5.81-6.94-1.25-4.14,4-8.6,5.14-5.89,1.51-6.44-5.19-10.57-5.24-2.85-.03-2.56,1.78-3.81,3.36-2.06,2.58-5.89,3.94-8.8,1.94-2.38-1.63-2.07-4.84-5.46-4.91-4.14-.1-3.1,2.11-5.22,3.96-1.85,1.61-5.05,2.13-7.23.8-1.59-.97-2.09-3.94-3.42-4.52-.93-.41-4.77-.3-5.51.3-.32.26-.65,1.62-1.13,2.23-1.78,2.27-3.65,3.3-6.7,2.69-3.25-.66-3.95-4.99-6.13-5.4-6.04-1.13-4.2,2.03-6.24,4.09-.96.98-3.22,1.47-4.58,1.44-4.93-.11-5.33-6.44-9.54-5.84-2.3.33-1.9,1.68-2.94,3.04-1.87,2.44-6.97,3.99-9.43,1.82-2.24-1.98-.74-4.61-5.35-4.39-3.09.15-2.64,2.71-4.94,4.11-2.03,1.24-5.75,1.36-7.57-.31-2.52-2.32-.81-4.69-6.44-3.95-2.82.37-2.36,3.8-4.38,5.13-2.1,1.38-5.87.9-7.82-.6-2.21-1.7-1-4.35-4.63-4.53-4.29-.2-4.87,5.3-9.63,5.16-4.83-.15-4.93-6.18-9.56-5.43-3.59.59-4.09,5.99-8.52,5.85-4.58-.15-5.93-6.48-10.34-5.85-4.08.58-3.48,7.03-9.25,5.74-4.1-.91-1.97-6.24-8.54-5.42-3.99.49-3.44,7.16-9.02,5.72-3.56-.91-3.79-5.99-7.84-6.11-5.15-.15-7.31,8.76-13.8,4.13-1.33-.95-2.11-2.79-3.69-3.46-6.97-3-6.78,5.29-12.21,5.2-3.46-.06-4.76-5.37-8.76-5.31-4.59.07-3.38,5.86-8.49,5.81-4.59-.05-4.33-5.34-8.46-5.55-3.32-.16-2.74,1.53-4.2,3.36-1.71,2.16-4.13,2.81-6.84,1.99-3.06-.92-2.54-5.35-7.84-4.95-3.71.28-3.24,5.29-8.4,5.16-3.86-.09-4.88-3.06-6.86-4.73v82.53c2.46,2.03,3.17,6.85,7.55,4.41,3.61-2,2.68-5.46,8.96-4.39,4.58.77,4.47,5.59,8.51,4.99,3.37-.5,3.91-5.39,8.84-5.52,5.52-.14,4.51,5.67,8.82,5.5,4.46-.17,3.96-6.44,8.84-6.29,5.18.17,4.87,6.96,10.03,6.29,3.94-.52,3.69-6.92,9.87-5.31,3.28.86,2.89,5.61,7.84,5.34,4.2-.23,3.55-4.69,7.19-5.94,6.05-2.08,6.82,5.6,10.92,5.88,5.2.36,5.19-8.59,12.54-5.24,3.1,1.41,2.92,6.55,7.71,5.07,3.02-.93,2.71-6.05,7.7-5.25,3.73.61,3.86,4.35,6.73,5.81h2.41c3.48-.85,3.13-5.85,7.01-6.3,6.5-.75,6.26,5.79,10.9,5.86,4.74.08,3.85-5.72,7.58-5.89,1.06-.04,3.5.64,4.36,1.26,1.4,1.02,1.78,3.99,3.27,4.27l5.16-.37c3.76-6.87,6.43-6.3,11.93-1.82.48.39.64,1.15,1.06,1.41,1.32.81,4.46,1.05,5.63-.13.35-.35.43-1.15.91-1.67,2.35-2.51,5.11-3.84,8.4-1.94,2.43,1.41,2.22,4.24,5.86,4.13,2.97-.09,3.32-2.66,5.41-4.17,2.34-1.7,6.44-1.29,8.64.59,1.24,1.05,1.86,3.27,4.07,3.41,4.55.28,3.5-5.77,9.59-5,3.12.39,4.8,5.5,8.42,5.52,5.25.04,5.67-8.5,12.37-5.06,2.62,1.35,3.42,4.79,6.97,4.9,3.44.1,4.12-3.58,6.42-4.92,5.7-3.33,6.61,4.48,9.59,5.04,4.44.83,6.18-4.79,10.82-4.75,4.64.04,4.63,5.81,10.36,4.65,3.22-.65,4.52-6.24,9.32-6.22,3.97.03,3.59,5.43,7.37,5.69,4.25.3,4.72-5.17,9.5-4.92,4.03.21,3.92,4.47,6.51,5.04,5.71,1.27,5.7-3.47,9.33-4.45,5.59-1.49,7.03,5.3,11.02,4.92,3.9-.37,3.88-6.06,8.45-5.92,4.17.14,5.58,5.66,10.05,5.53,3.94-.11,4.33-5.48,8.83-5.52,4.48-.04,5.24,5.41,8.48,5.87,3.93.57,4.27-2.96,6.6-4.49,5.41-3.54,7.5,4.33,11.95,4.8,4.44.47,4.32-4.71,8.28-5.05,4.43-.38,4.45,2.08,7.51,3.71,6.31,3.34,6.78-3.68,11.55-4.44.22.16.43.34.64.55,2.21,2.32,1.39,5.57,6.42,3.9.17-.06.35-.15.52-.27,3.91,1.01,3.89-2.41,5.98-4.32,1.46-.09,3.11.17,4.15.87,2.68,1.81,1.56,4.66,6.43,4.74,3.62.07,2.71-2.07,4.79-3.98,2.71-2.48,6.35-2.19,8.65.61.52.63,1.35,2.6,1.73,2.83,1.33.86,5.44.42,6.86-.33,1.74-.92,2.64-4.27,4.88-4.65,5.79-.96,4.96,5.07,10.03,5,4.52-.07,4.84-5.35,9.22-5.35,4.67,0,4.43,5.39,7.68,5.8,2.9.37,2.92-1.58,4.37-3.14,1.91-2.05,3.84-2.85,6.73-2.27,3.88.78,3.93,8.06,9.11,5.18,3.61-2.01,2.68-5.46,8.96-4.4,4.57.78,4.47,5.6,8.51,5,3.37-.5,3.91-5.39,8.84-5.52,5.52-.15,4.51,5.67,8.82,5.5,4.45-.18,3.96-6.45,8.84-6.29,5.17.16,4.87,6.95,10.03,6.28,3.94-.51,3.68-6.91,9.87-5.3,3.28.85,2.89,5.61,7.84,5.33,4.2-.23,3.54-4.69,7.19-5.94,6.05-2.08,6.82,5.61,10.92,5.89,5.2.36,5.19-8.6,12.54-5.25,3.1,1.41,2.92,6.55,7.71,5.08,3.02-.93,2.7-6.06,7.69-5.25,3.74.6,3.86,4.35,6.74,5.81h2.41c3.48-.86,3.13-5.86,7-6.3,6.51-.75,6.27,5.79,10.91,5.86,4.73.07,3.85-5.72,7.58-5.89,1.06-.05,3.5.63,4.36,1.26,1.4,1.02,1.78,3.99,3.27,4.26l5.16-.36c3.76-6.87,6.43-6.3,11.93-1.83.48.39.64,1.16,1.06,1.41,1.32.81,4.46,1.06,5.63-.13.35-.35.42-1.15.91-1.66,2.34-2.51,5.11-3.85,8.4-1.94,2.42,1.41,2.22,4.23,5.86,4.13,2.97-.09,3.32-2.66,5.4-4.18,2.35-1.7,6.44-1.28,8.65.59,1.24,1.05,1.86,3.28,4.07,3.42,4.55.28,3.5-5.77,9.59-5.01,3.12.39,4.8,5.5,8.42,5.53,5.25.04,5.67-8.5,12.37-5.06,2.62,1.35,3.42,4.79,6.97,4.89,3.44.1,4.12-3.57,6.41-4.91,5.71-3.34,6.62,4.47,9.6,5.03,4.44.84,6.18-4.78,10.82-4.75,4.64.04,4.63,5.81,10.36,4.66,3.22-.65,4.52-6.25,9.32-6.22,3.96.02,3.59,5.42,7.37,5.69,4.25.3,4.72-5.18,9.5-4.93,4.03.21,3.92,4.47,6.51,5.05,5.7,1.27,5.7-3.48,9.33-4.45,5.59-1.5,7.03,5.29,11.02,4.91,3.9-.37,3.88-6.06,8.45-5.91,4.17.13,5.57,5.66,10.04,5.53,3.95-.12,4.34-5.49,8.83-5.53,4.49-.04,5.25,5.41,8.48,5.88,3.94.56,4.28-2.96,6.61-4.49,5.41-3.55,7.5,4.32,11.95,4.8,4.44.47,4.32-4.71,8.28-5.05,4.43-.39,4.44,2.08,7.51,3.7,6.41,3.4,6.78-3.92,11.78-4.48.54-.07,1-.07,1.42-.04.25.18.51.38.75.63,2.21,2.32,1.38,5.57,6.41,3.91.07-.03.14-.06.21-.09,2.25-.1,2.68-2.33,4.03-3.98.19-.11.37-.2.57-.26,1.67-.51,4.37-.39,5.84.61,2.68,1.8,1.57,4.65,6.44,4.74,3.61.06,2.71-2.07,4.79-3.98,2.71-2.49,6.35-2.2,8.65.6.52.63,1.35,2.6,1.72,2.84,1.33.85,5.45.41,6.87-.34,1.73-.92,2.63-4.27,4.88-4.64,5.79-.97,4.95,5.07,10.03,4.99,4.52-.06,4.84-5.35,9.22-5.35,4.67,0,4.42,5.4,7.68,5.81,2.89.36,2.91-1.58,4.37-3.15,1.9-2.04,3.84-2.84,6.73-2.26,3.87.78,3.92,8.06,9.1,5.17,3.61-2.01,2.68-5.46,8.97-4.39,4.57.77,4.47,5.59,8.51,4.99,3.36-.5,3.91-5.39,8.84-5.52,5.52-.14,4.51,5.67,8.82,5.5,4.45-.18,3.96-6.44,8.84-6.29,5.17.17,4.86,6.96,10.03,6.28,3.93-.51,3.68-6.91,9.87-5.3,3.28.86,2.88,5.61,7.84,5.34,4.2-.23,3.54-4.7,7.18-5.95,6.06-2.07,6.83,5.61,10.92,5.89,5.21.36,5.2-8.59,12.55-5.25,3.1,1.41,2.91,6.56,7.71,5.08,3.02-.93,2.7-6.05,7.69-5.25,3.74.61,3.86,4.35,6.74,5.81h2.41c3.48-.85,3.13-5.86,7-6.3,6.51-.75,6.26,5.79,10.91,5.86,4.73.08,3.85-5.72,7.58-5.89,1.05-.04,3.49.63,4.35,1.26,1.4,1.02,1.78,3.99,3.28,4.27l5.15-.37c3.76-6.87,6.43-6.3,11.94-1.82.47.39.64,1.15,1.06,1.41,1.31.81,4.46,1.05,5.63-.13.35-.35.42-1.15.9-1.67,2.35-2.51,5.11-3.85,8.41-1.94,2.42,1.41,2.22,4.24,5.86,4.13,2.97-.09,3.32-2.66,5.4-4.17,2.34-1.7,6.44-1.29,8.65.58,1.24,1.06,1.85,3.28,4.07,3.42,4.54.28,3.49-5.77,9.59-5.01,3.12.39,4.79,5.51,8.42,5.53,5.25.04,5.67-8.5,12.37-5.06,2.62,1.35,3.42,4.79,6.97,4.9,3.43.1,4.12-3.58,6.41-4.92,5.7-3.33,6.61,4.47,9.6,5.04,4.44.83,6.18-4.79,10.82-4.75s4.63,5.81,10.36,4.65c3.22-.65,4.52-6.24,9.31-6.22,3.97.02,3.6,5.43,7.38,5.69,4.24.3,4.72-5.17,9.49-4.92,4.04.21,3.93,4.47,6.51,5.04,5.71,1.27,5.7-3.47,9.33-4.45,5.6-1.49,7.04,5.3,11.03,4.92,3.9-.37,3.88-6.06,8.44-5.92,4.18.14,5.58,5.66,10.05,5.53,3.94-.11,4.33-5.48,8.83-5.52,4.49-.04,5.25,5.41,8.48,5.87,3.94.57,4.28-2.96,6.61-4.49,5.4-3.54,7.5,4.33,11.95,4.8,4.43.47,4.32-4.71,8.28-5.05,4.42-.38,4.44,2.08,7.51,3.71,6.31,3.34,6.77-3.68,11.55-4.44.21.16.43.34.63.55,2.22,2.32,1.39,5.57,6.42,3.9.18-.06.35-.15.53-.27,3.91,1.01,3.89-2.41,5.97-4.33,1.47-.08,3.11.18,4.15.88,2.68,1.8,1.57,4.65,6.44,4.74,3.61.07,2.7-2.07,4.79-3.98,2.71-2.48,6.35-2.19,8.65.61.52.63,1.35,2.59,1.72,2.83,1.33.86,5.45.42,6.87-.33,1.73-.92,2.63-4.28,4.88-4.65,5.79-.97,4.95,5.07,10.03,5,4.52-.07,4.83-5.35,9.22-5.35,4.66-.01,4.42,5.39,7.67,5.8,2.9.37,2.92-1.58,4.38-3.14,1.9-2.05,3.84-2.85,6.73-2.27,3.87.78,3.92,8.06,9.1,5.18,3.61-2.01,2.68-5.46,8.96-4.4,4.58.77,4.47,5.6,8.51,5,3.37-.5,3.92-5.4,8.85-5.52,5.52-.15,4.5,5.67,8.82,5.5,4.45-.18,3.95-6.45,8.84-6.29,5.17.16,4.86,6.95,10.03,6.28,3.93-.51,3.68-6.91,9.87-5.3,3.28.85,2.88,5.61,7.84,5.33,4.2-.23,3.54-4.69,7.18-5.94,6.06-2.08,6.83,5.61,10.92,5.89,5.21.36,5.19-8.6,12.55-5.25,3.09,1.41,2.91,6.55,7.7,5.08,3.02-.93,2.71-6.06,7.7-5.25,3.73.6,3.86,4.34,6.74,5.81h2.41c3.47-.86,3.12-5.86,7-6.3,6.51-.75,6.26,5.79,10.91,5.86,4.73.07,3.85-5.73,7.57-5.89,1.06-.05,3.5.63,4.36,1.25,1.4,1.03,1.78,4,3.28,4.27l5.15-.37c3.76-6.87,6.43-6.29,11.93-1.82.48.39.65,1.16,1.06,1.41,1.32.81,4.47,1.06,5.64-.13.34-.35.42-1.15.9-1.66,2.35-2.51,5.11-3.85,8.4-1.94,2.43,1.4,2.23,4.23,5.87,4.13,2.97-.09,3.31-2.66,5.4-4.18,2.34-1.7,6.44-1.28,8.65.59,1.24,1.05,1.85,3.28,4.07,3.41,4.54.29,3.49-5.76,9.59-5,3.11.39,4.79,5.5,8.41,5.53,5.09.03,5.65-7.95,11.73-5.36v1.82c2.46,2.03,3.17,6.85,7.55,4.41.73-.4,1.26-.86,1.72-1.33,1.27-.54,2.07-1.73,2.92-2.82.93-.44,2.22-.6,4.33-.24,4.58.77,4.47,5.59,8.51,4.99,3.37-.5,3.91-5.39,8.84-5.52,5.52-.14,4.51,5.67,8.82,5.5,1.77-.07,2.75-1.09,3.6-2.3,1.27-.94,2.32-2.54,3.69-3.79.45-.15.95-.22,1.54-.21,5.18.17,4.87,6.96,10.03,6.29,3.94-.52,3.69-6.92,9.87-5.31,3.28.86,2.89,5.61,7.84,5.34,4.2-.23,3.55-4.69,7.19-5.94,6.05-2.08,6.82,5.6,10.92,5.88,5.2.36,5.19-8.59,12.54-5.24,3.1,1.41,2.92,6.55,7.71,5.07,3.02-.93,2.71-6.05,7.7-5.25,3.73.61,3.86,4.35,6.73,5.81h2.41c3.48-.85,3.13-5.85,7.01-6.3,6.5-.75,6.26,5.79,10.9,5.86,4.74.08,3.85-5.72,7.58-5.89,1.06-.04,3.5.64,4.36,1.26,1.4,1.02,1.78,3.99,3.27,4.27l5.16-.37c3.76-6.87,6.43-6.3,11.93-1.82.48.39.64,1.15,1.06,1.41,1.32.81,4.46,1.05,5.63-.13.35-.35.43-1.15.91-1.67,2.35-2.51,5.11-3.84,8.4-1.94,2.43,1.41,2.22,4.24,5.86,4.13,2.97-.09,3.32-2.66,5.41-4.17,2.34-1.7,6.44-1.29,8.64.59,1.24,1.05,1.86,3.27,4.07,3.41,4.55.28,3.5-5.77,9.59-5,3.12.39,4.8,5.5,8.42,5.52,5.25.04,5.67-8.5,12.37-5.06,2.62,1.35,3.42,4.79,6.97,4.9,3.44.1,4.12-3.58,6.42-4.92,5.7-3.33,6.61,4.48,9.59,5.04,4.44.83,6.18-4.79,10.82-4.75,4.64.04,4.63,5.81,10.36,4.65,3.22-.65,4.52-6.24,9.32-6.22,3.97.03,3.59,5.43,7.37,5.69,4.25.3,4.72-5.17,9.5-4.92,4.03.21,3.92,4.47,6.51,5.04,5.71,1.27,5.7-3.47,9.33-4.45,5.59-1.49,7.03,5.3,11.02,4.92,3.9-.37,3.88-6.06,8.45-5.92,4.17.14,5.58,5.66,10.05,5.53,3.94-.11,4.33-5.48,8.83-5.52,4.48-.04,5.24,5.41,8.48,5.87,3.93.57,4.27-2.96,6.6-4.49,5.41-3.54,7.5,4.33,11.95,4.8,4.44.47,4.32-4.71,8.28-5.05,4.43-.38,4.45,2.08,7.51,3.71,6.31,3.34,6.78-3.68,11.55-4.44.22.16.43.34.64.55,2.21,2.32,1.39,5.57,6.42,3.9.17-.06.35-.15.52-.27,3.91,1.01,3.89-2.41,5.98-4.32,1.46-.09,3.11.17,4.15.87,2.68,1.81,1.56,4.66,6.43,4.74,3.62.07,2.71-2.07,4.79-3.98,2.71-2.48,6.35-2.19,8.65.61.52.63,1.35,2.6,1.73,2.83,1.33.86,5.44.42,6.86-.33,1.74-.92,2.64-4.27,4.88-4.65,5.79-.96,4.96,5.07,10.03,5,4.52-.07,4.84-5.35,9.22-5.35,4.67,0,4.43,5.39,7.68,5.8,2.9.37,2.92-1.58,4.37-3.14,1.91-2.05,3.84-2.85,6.73-2.27,3.88.78,3.93,8.06,9.11,5.18,3.61-2.01,2.68-5.46,8.96-4.4,4.57.78,4.47,5.6,8.51,5,3.37-.5,3.91-5.39,8.84-5.52,5.52-.15,4.51,5.67,8.82,5.5,4.45-.18,3.96-6.45,8.84-6.29,5.17.16,4.87,6.95,10.03,6.28,3.94-.51,3.68-6.91,9.87-5.3,3.28.85,2.89,5.61,7.84,5.33,4.2-.23,3.54-4.69,7.19-5.94,6.05-2.08,6.82,5.61,10.92,5.89,5.2.36,5.19-8.6,12.54-5.25,3.1,1.41,2.92,6.55,7.71,5.08,3.02-.93,2.7-6.06,7.69-5.25,3.74.6,3.86,4.35,6.74,5.81h2.41c3.48-.86,3.13-5.86,7-6.3,6.51-.75,6.27,5.79,10.91,5.86,4.73.07,3.85-5.72,7.58-5.89,1.06-.05,3.5.63,4.36,1.26,1.4,1.02,1.78,3.99,3.27,4.26l5.16-.36c3.76-6.87,6.43-6.3,11.93-1.83.48.39.64,1.16,1.06,1.41,1.32.81,4.46,1.06,5.63-.13.35-.35.42-1.15.91-1.66,2.34-2.51,5.11-3.85,8.4-1.94,2.42,1.41,2.22,4.23,5.86,4.13,2.97-.09,3.32-2.66,5.4-4.18,2.35-1.7,6.44-1.28,8.65.59,1.24,1.05,1.86,3.28,4.07,3.42,4.55.28,3.5-5.77,9.59-5.01,3.12.39,4.8,5.5,8.42,5.53,5.25.04,5.67-8.5,12.37-5.06,2.62,1.35,3.42,4.79,6.97,4.89,3.44.1,4.12-3.57,6.41-4.91,5.71-3.34,6.62,4.47,9.6,5.03,4.44.84,6.18-4.78,10.82-4.75,4.64.04,4.63,5.81,10.36,4.66,3.22-.65,4.52-6.25,9.32-6.22,3.96.02,3.59,5.42,7.37,5.69,4.25.3,4.72-5.18,9.5-4.93,4.03.21,3.92,4.47,6.51,5.05,5.7,1.27,5.7-3.48,9.33-4.45,5.59-1.5,7.03,5.29,11.02,4.91,3.9-.37,3.88-6.06,8.45-5.91,4.17.13,5.57,5.66,10.04,5.53,3.95-.12,4.34-5.49,8.83-5.53,4.49-.04,5.25,5.41,8.48,5.88,3.94.56,4.28-2.96,6.61-4.49,5.41-3.55,7.5,4.32,11.95,4.8,4.44.47,4.32-4.71,8.28-5.05,4.43-.39,4.44,2.08,7.51,3.7,6.41,3.4,6.78-3.92,11.78-4.48.54-.07,1-.07,1.42-.04.25.18.51.38.75.63,2.21,2.32,1.38,5.57,6.41,3.91.07-.03.14-.06.21-.09,2.25-.1,2.68-2.33,4.03-3.98.19-.11.37-.2.57-.26,1.67-.51,4.37-.39,5.84.61,2.68,1.8,1.57,4.65,6.44,4.74,3.61.06,2.71-2.07,4.79-3.98,2.71-2.49,6.35-2.2,8.65.6.52.63,1.35,2.6,1.72,2.84,1.33.85,5.45.41,6.87-.34,1.73-.92,2.63-4.27,4.88-4.64,5.79-.97,4.95,5.07,10.03,4.99,4.52-.06,4.84-5.35,9.22-5.35,4.67,0,4.42,5.4,7.68,5.81,2.89.36,2.91-1.58,4.37-3.15,1.9-2.04,3.84-2.84,6.73-2.26,3.87.78,3.92,8.06,9.1,5.17,3.61-2.01,2.68-5.46,8.97-4.39,4.57.77,4.47,5.59,8.51,4.99,3.36-.5,3.91-5.39,8.84-5.52,5.52-.14,4.51,5.67,8.82,5.5,4.45-.18,3.96-6.44,8.84-6.29,5.17.17,4.86,6.96,10.03,6.28,3.93-.51,3.68-6.91,9.87-5.3,3.28.86,2.88,5.61,7.84,5.34,4.2-.23,3.54-4.7,7.18-5.95,6.06-2.07,6.83,5.61,10.92,5.89,5.21.36,5.2-8.59,12.55-5.25,3.1,1.41,2.91,6.56,7.71,5.08,3.02-.93,2.7-6.05,7.69-5.25,3.74.61,3.86,4.35,6.74,5.81h2.41c3.48-.85,3.13-5.86,7-6.3,6.51-.75,6.26,5.79,10.91,5.86,4.73.08,3.85-5.72,7.58-5.89,1.05-.04,3.49.63,4.35,1.26,1.4,1.02,1.78,3.99,3.28,4.27l5.15-.37c3.76-6.87,6.43-6.3,11.94-1.82.47.39.64,1.15,1.06,1.41,1.31.81,4.46,1.05,5.63-.13.35-.35.42-1.15.9-1.67,2.35-2.51,5.11-3.85,8.41-1.94,2.42,1.41,2.22,4.24,5.86,4.13,2.97-.09,3.32-2.66,5.4-4.17,2.34-1.7,6.44-1.29,8.65.58,1.24,1.06,1.85,3.28,4.07,3.42,4.54.28,3.49-5.77,9.59-5.01,3.12.39,4.79,5.51,8.42,5.53,5.25.04,5.67-8.5,12.37-5.06,2.62,1.35,3.42,4.79,6.97,4.9,3.43.1,4.12-3.58,6.41-4.92,5.7-3.33,6.61,4.47,9.6,5.04,4.44.83,6.18-4.79,10.82-4.75s4.63,5.81,10.36,4.65c3.22-.65,4.52-6.24,9.31-6.22,3.97.02,3.6,5.43,7.38,5.69,4.24.3,4.72-5.17,9.49-4.92,4.04.21,3.93,4.47,6.51,5.04,5.71,1.27,5.7-3.47,9.33-4.45,5.6-1.49,7.04,5.3,11.03,4.92,3.9-.37,3.88-6.06,8.44-5.92,4.18.14,5.58,5.66,10.05,5.53,3.94-.11,4.33-5.48,8.83-5.52,4.49-.04,5.25,5.41,8.48,5.87,3.94.57,4.28-2.96,6.61-4.49,5.4-3.54,7.5,4.33,11.95,4.8,4.43.47,4.32-4.71,8.28-5.05,4.42-.38,4.44,2.08,7.51,3.71,6.31,3.34,6.77-3.68,11.55-4.44.21.16.43.34.63.55,2.22,2.32,1.39,5.57,6.42,3.9.18-.06.35-.15.53-.27,3.91,1.01,3.89-2.41,5.97-4.33,1.47-.08,3.11.18,4.15.88,2.68,1.8,1.57,4.65,6.44,4.74,3.61.07,2.7-2.07,4.79-3.98,2.71-2.48,6.35-2.19,8.65.61.52.63,1.35,2.59,1.72,2.83,1.33.86,5.45.42,6.87-.33,1.73-.92,2.63-4.28,4.88-4.65,5.79-.97,4.95,5.07,10.03,5,4.52-.07,4.83-5.35,9.22-5.35,4.66-.01,4.42,5.39,7.67,5.8,2.9.37,2.92-1.58,4.38-3.14,1.9-2.05,3.84-2.85,6.73-2.27,3.87.78,3.92,8.06,9.1,5.18,3.61-2.01,2.68-5.46,8.96-4.4,4.58.77,4.47,5.6,8.51,5,3.37-.5,3.92-5.4,8.85-5.52,5.52-.15,4.5,5.67,8.82,5.5,4.45-.18,3.95-6.45,8.84-6.29,5.17.16,4.86,6.95,10.03,6.28,3.93-.51,3.68-6.91,9.87-5.3,3.28.85,2.88,5.61,7.84,5.33,4.2-.23,3.54-4.69,7.18-5.94,6.06-2.08,6.83,5.61,10.92,5.89,5.21.36,5.19-8.6,12.55-5.25,3.09,1.41,2.91,6.55,7.7,5.08,3.02-.93,2.71-6.06,7.7-5.25,3.73.6,3.86,4.34,6.74,5.81h2.41c3.47-.86,3.12-5.86,7-6.3,6.51-.75,6.26,5.79,10.91,5.86,4.73.07,3.85-5.73,7.57-5.89,1.06-.05,3.5.63,4.36,1.25,1.4,1.03,1.78,4,3.28,4.27l5.15-.37c3.76-6.87,6.43-6.29,11.93-1.82.48.39.65,1.16,1.06,1.41,1.32.81,4.47,1.06,5.64-.13.34-.35.42-1.15.9-1.66,2.35-2.51,5.11-3.85,8.4-1.94,2.43,1.4,2.23,4.23,5.87,4.13,2.97-.09,3.31-2.66,5.4-4.18,2.34-1.7,6.44-1.28,8.65.59,1.24,1.05,1.85,3.28,4.07,3.41,4.54.29,3.49-5.76,9.59-5,3.11.39,4.79,5.5,8.41,5.53,5.26.03,5.68-8.5,12.37-5.06,2.63,1.35,3.43,4.79,6.98,4.89,3.43.1,4.12-3.57,6.41-4.91,5.7-3.34,6.61,4.47,9.6,5.03,4.44.84,6.17-4.78,10.82-4.75,4.63.04,4.63,5.81,10.35,4.66,3.22-.65,4.53-6.25,9.32-6.22,3.97.02,3.6,5.42,7.38,5.69,4.24.3,4.72-5.18,9.49-4.93,4.03.21,3.92,4.47,6.51,5.05,5.71,1.27,5.7-3.48,9.33-4.45,3.33-.89,5.2,1.16,7,2.89V2.48c-.96-.95-1.96-1.88-3.09-2.48Z"/>
  </g>
</svg>