<?xml version="1.0" encoding="UTF-8"?>
<svg id="Capa_2" data-name="Capa 2" xmlns="http://www.w3.org/2000/svg" viewBox="0 0 663.66 179.2">
  <defs>
    <style>
      .cls-1 {
        fill: #781616;
      }

      .cls-2 {
        fill: #db0812;
      }
    </style>
  </defs>
  <g id="Capa_1-2" data-name="Capa 1">
    <g>
      <g>
        <path class="cls-2" d="M226.5,87.49c1.1,0,1.73.79,1.73,1.57v29.25c0,.94-.79,1.73-1.73,1.73h-47.99c-.94,0-1.73-.94-1.73-2.04V4.29c0-.94.94-2.2,2.04-2.2h26.58c.94,0,1.57.79,1.57,1.73v82.57c0,.63.47,1.1.94,1.1h18.58Z"/>
        <path class="cls-2" d="M233.89,4.14c0-.94.94-2.04,2.04-2.04h55.83c.94,0,1.57.79,1.57,1.73v28.31c0,.94-.79,1.57-1.73,1.57h-26.27c-.63,0-1.1.47-1.1,1.1v8.81c0,.63.63,1.1,1.1,1.1h16.58c.63,0,1.1.47,1.1,1.1v28.62c0,.79-.63,1.42-1.26,1.42h-16.9c-.63,0-1.1.47-1.1,1.26v9.28c0,.63.47,1.1.94,1.1h27.21c1.1,0,1.73.79,1.73,1.57v29.25c0,.94-.79,1.73-1.73,1.73h-56.31c-.94,0-1.73-.94-1.73-2.04V4.14Z"/>
        <path class="cls-2" d="M302.5,4.14c0-1.1.79-2.04,1.73-2.04h26.58c1.1,0,1.89.63,2.2,1.89l9.44,35.39c.31,1.26.79,1.89,1.1,1.89.47,0,.94-.63.94-2.04V4.14c0-1.1.79-2.04,1.89-2.04h23.59c1.26,0,2.04,1.1,2.04,2.2v113.71c0,1.1-.63,2.04-1.73,2.04h-29.41c-.63,0-1.57-.63-1.73-1.57l-6.92-28.31c-.31-1.57-.94-2.2-1.42-2.2s-.79.63-.79,2.2v27.84c0,1.1-.94,2.04-2.04,2.04h-23.91c-.94,0-1.57-.94-1.57-2.2V4.14Z"/>
        <path class="cls-2" d="M484.45,2.09c.94,0,1.73.63,1.73,1.73v79.9c0,2.04.79,3.46,2.67,3.46s2.67-1.42,2.67-3.3V3.67c0-.79.79-1.57,1.73-1.57h26.58c.79,0,1.73.47,1.73,1.57v84.3c0,16.67-11.95,32.08-32.71,32.08s-32.71-15.57-32.71-32.08V3.82c0-1.1.63-1.73,1.57-1.73h26.74Z"/>
        <path class="cls-2" d="M561.54,61.39c-.31-2.2-.63-3.62-1.1-3.62s-.79,1.1-1.1,3.62l-2.05,14.94c-.16.79.16,1.57.94,1.57,5.03,0,5.5,0,5.35-1.42l-2.05-15.1ZM575.38,2.09c1.1,0,1.89.94,2.04,2.04l21.55,112.45c.31,1.73-.47,3.46-2.2,3.46h-25.48c-.94,0-1.89-.63-2.05-1.57l-3.14-23.59c-.16-.79-.79-1.26-1.57-1.26h-8.49c-.63,0-1.26.63-1.41,1.57l-2.99,23.12c-.16,1.1-1.26,1.73-2.04,1.73h-25.95c-1.42,0-2.2-1.1-1.89-2.67l21.08-113.4c.16-.79.94-1.89,1.89-1.89h30.67Z"/>
        <path class="cls-2" d="M637.71,40.15c-.94,0-1.57-.47-1.89-1.73-.94-3.77-2.52-5.66-4.72-5.66-1.57,0-2.36,1.26-2.36,2.83,0,5.03,7.39,10.7,16.83,17.14,10.22,6.92,17.93,18.24,17.93,29.88,0,21.08-12.58,37.9-33.19,37.9-23.91,0-34.92-17.3-34.92-42.47,0-.79.63-1.57,1.89-1.57l21.7-1.1c1.1,0,1.73.63,1.89,2.04.63,6.29,3.3,13.05,7.08,13.05,2.2,0,3.62-1.41,3.62-5.03s-8.81-10.7-19.35-19.19c-10.54-8.49-15.73-20.29-15.73-30.98,0-16.04,11.95-33.5,33.03-33.5s34.13,16.51,34.13,35.23c0,1.1-.63,2.04-1.89,2.04l-24.06,1.1Z"/>
        <path class="cls-2" d="M446.32,56.99h-32.89c-.97,0-1.76.79-1.76,1.76v17.39c0,.97.79,1.76,1.76,1.76h3.81v5.86c0,2.36-1.91,4.27-4.27,4.27s-4.27-1.91-4.27-4.27v-47.14c0-.11.03-.21.04-.31.01-.1.02-.2.04-.3,0,0,0-.02,0-.03.32-1.43,1.59-2.5,3.12-2.5,1.77,0,3.2,1.43,3.2,3.2v9.96c0,1.88,1.41,3.14,2.82,3.14l28.78-1.1c1.41,0,1.41-.47,1.41-4.7,0-22.57-12.07-42.01-34.95-42.01-21.47,0-34.8,16.61-34.8,45.14v31.19c0,22.41,12.23,42.01,34.01,42.01,7.12,0,13.68-1.7,19.17-5.63v3.87c0,.97.79,1.76,1.76,1.76h13c.97,0,1.76-.79,1.76-1.76v-59.81c0-.97-.79-1.76-1.76-1.76"/>
        <path class="cls-2" d="M29.71,120.53c-6.13,0-11.98-1.06-17.54-3.17-5.56-2.11-9.62-4.39-12.17-6.83v-44.62h1.83c8.57,10.08,17.74,15.12,27.53,15.12,4.48,0,7.99-.58,10.52-1.75,2.53-1.16,3.8-2.64,3.8-4.43s-1.11-2.86-3.33-3.37c-2.22-.51-6.45-.77-12.7-.77h-8.07v-20.64h8.07c6.01,0,10.07-.34,12.17-1.02,2.1-.68,3.15-2.04,3.15-4.1,0-3.36-4.26-5.04-12.79-5.04-10.3,0-20.37,5.07-28.35,15.2H0V10.58c2.42-1.59,7.32-5.16,13.12-7.33C18.91,1.08,24.68,0,30.41,0c11.51,0,20.59,3.31,27.23,9.91,6.64,6.61,9.96,15.28,9.96,26.01,0,2.82-.37,5.51-1.12,8.09-.75,2.57-1.92,5.01-3.51,7.31-1.59,2.3-3.87,4.14-6.84,5.53-2.97,1.38-6.44,2.07-10.4,2.07v2.11c8.17,0,14.36,2.07,18.57,6.22,4.2,4.15,6.31,9.9,6.31,17.27,0,11.76-3.54,20.7-10.61,26.82-7.07,6.12-17.17,9.18-30.3,9.18"/>
        <path class="cls-2" d="M116.53,118.84h-33.64c-.51-5.05-.77-9.67-.77-13.86,0-6.41.44-12.44,1.33-18.1.89-5.65,2.39-11.22,4.52-16.71,2.13-5.49,4.83-10.38,8.1-14.67,3.27-4.29,7.44-8.12,12.5-11.49,5.06-3.37,10.83-5.92,17.29-7.66v-1.96l-55.45,9.62V1.95h65.86v39.62c-3.51,1.47-6.63,3.52-9.37,6.15-2.74,2.64-4.94,5.53-6.59,8.68-1.66,3.15-3.02,6.7-4.08,10.64-1.06,3.94-1.8,7.77-2.22,11.49-.41,3.72-.62,7.65-.62,11.78,0,10.49,1.04,20,3.13,28.53"/>
      </g>
      <g>
        <path class="cls-1" d="M148.14,147c-.26-.44-.53-.62-.79-.62-.35,0-.62.7-1.06,1.58-2.46,5.63-6.16,14.52-7.92,20.41-.18.62-.88.97-1.5.97-.7,0-1.41-.35-1.41-1.14v-.18c0-.18,0-.35.09-.62,6.6-16.8,9.33-21.38,9.5-23.84v-.18c0-1.85-1.58-2.55-4.22-6.77-.26-.26-.26-.62-.26-.88,0-.79.7-1.41,1.41-1.41.35,0,.79.18,1.06.62.97,1.32,1.94,2.73,2.9,4.13.26.35.53.53.7.53.35,0,.7-.44,1.06-1.06,3.87-7.92,7.83-15.92,11.79-23.84.09-.26.18-.44.18-.62,0-.35-.18-.44-.53-.44-.35,0-.7.09-1.06.18-10.47,2.11-29.82,6.42-36.6,16.8-.44.53-.53.97-.62,1.32,0,1.41,1.67,1.76,1.67,2.82,0,.18-.09.44-.26.7-.35.44-.79.62-1.23.62-1.23,0-2.64-1.32-2.64-3.61v-.18c.09-2.38,1.94-5.72,7.48-9.5,9.59-6.6,22.7-10.12,33.96-11.88,1.58-.26,2.02-.53,2.9-1.94,1.85-2.9,4.31-7.04,6.6-9.59.44-.44.88-.62,1.41-.62.7,0,1.41.53,1.41,1.41v.18c0,.18,0,.44-.09.62-1.5,3.69-1.85,1.58-2.99,3.17-2.29,3.43-3.43,4.93-3.43,5.45,0,.35.26.35.79.35h.97c1.5-.09,3.87-.18,6.69-.18,8.89,0,21.91,1.06,21.91,7.83v.26c-1.14,10.47-24.63,22.26-33.43,25.69-3.08,1.14-6.07,2.29-9.06,3.43-.53.26-.79.53-.79.79v.18c0,.18.18.44.35.7,8.8,10.47,18.74,20.32,30,28.06.18.18.26.35.26.62-.09.7-.97,1.85-1.85,1.85-.09,0-.26,0-.44-.09-10.82-7.21-24.37-21.82-32.9-32.11ZM173.92,112.25c-2.82,0-5.72.18-8.89.53-1.23.18-1.76.62-2.38,1.67-4.58,7.74-9.33,17.86-13.02,26.04-.35.7-.53,1.41-.53,2.11v.26c0,1.14.62,2.11,1.85,2.11.18,0,.35,0,.53-.09,9.59-1.41,41.52-18.39,41.88-26.74v-.18c0-1.23-.7-2.38-2.55-3.17-5.37-1.76-11.26-2.55-16.89-2.55Z"/>
        <path class="cls-1" d="M189.66,140.05c.18-.18.26-.44.26-.62,0-.62-.44-1.23-.44-1.94,0-.62.35-1.41,1.85-2.46,3.17-2.2,11.17-6.51,16.1-6.51,1.85,0,3.34.62,3.78,2.29.09.26.09.53.09.88,0,4.22-6.69,17.59-8.01,21.82,0,.18-.09.35-.09.44,0,.18.09.26.18.26.09,0,.26-.09.44-.35,2.55-3.17,10.65-13.55,13.81-15.13.7-.35,1.32-.44,1.85-.44,4.58,0,.26,12.58,4.58,13.46,4.57,0,11.97-3.61,16.01-5.81.18-.09.35-.18.44-.18.62,0,.97.62.97,1.14,0,.26-.09.53-.35.7-2.38,1.67-12.84,6.69-16.98,6.69h-.35c-6.95-.53-3.87-12.4-5.28-12.58h-.18c-2.38,0-13.46,14.25-15.92,18.21-.35.44-.88.7-1.41.7-1.06,0-2.2-.97-2.2-2.02,0-.18,0-.44.09-.62,2.29-7.21,9.76-22.26,9.76-25.78,0-.44-.09-.7-.26-.88-.35-.26-.79-.44-1.41-.44-3.78,0-12.14,4.93-13.64,5.89-.44.26-.62.53-.62.79,0,1.14,4.14,2.46,4.14,7.65,0,6.07-6.07,16.8-12.67,16.8-1.94,0-3.34-1.23-3.34-3.78,0-5.54,5.63-14.08,8.8-18.21ZM192.48,141.37c-.18,0-.35.09-.53.35-3.61,3.52-8.18,11.17-8.18,16.45,0,1.14.35,1.67.88,1.67.79,0,2.02-.88,3.52-2.38,2.82-2.82,5.98-7.92,5.98-12.14,0-.35,0-.7-.09-1.06-.09-.62-.62-2.9-1.58-2.9Z"/>
        <path class="cls-1" d="M323.91,157.91c0,1.23-.97,2.55-3.08,3.61-4.84,2.38-22.87,7.57-36.33,8.45-1.67.18-3.25.18-4.75.18-1.94,0-9.41-.18-9.41-3.34,0-.88.88-1.58,1.67-1.58.44,0,.88.18,1.06.7.62,1.76,3.52,1.94,5.19,1.94h.09c1.14,0,1.23-.44,1.41-1.23l2.38-7.83c.09-.35.09-.62.09-.79,0-.79-.44-.97-1.32-.97l-.26.09h-1.41c-1.76,0-4.49-.18-5.01-.7-.35-.35-.53-.88-.53-1.41,0-.44.09-.79.35-1.14,1.23-1.23,7.57-3.96,9.33-4.75,2.02-1.06,2.73-1.58,3.96-3.61,1.94-3.34,3.61-7.04,5.45-10.47,3.78-7.3,8.18-15.31,13.37-21.73.44-.35.97-.7,1.5-.7.35,0,.7.18.88.53.18.18.18.44.18.62,0,.88-.7,1.85-1.06,2.46-.44.97-2.38,5.1-2.82,5.63-.18.18-.44.26-.7.26s-.7-.09-.97-.18c-5.01,7.3-9.15,15.22-12.76,23.23-.18.26-.18.53-.18.7,0,.26.18.35.44.35.44,0,1.06-.26,1.41-.35,10.91-3.61,43.55-16.98,49.35-24.9.79-1.06,1.06-2.02,1.06-2.9,0-7.65-23.75-8.62-29.82-8.62-13.99,0-40.82,2.9-48.74,14.16-.79,1.14-1.41,2.55-1.41,3.87,0,1.5.79,2.99,3.17,4.14.53.26.79.7.79,1.14,0,.79-.7,1.58-1.58,1.58-.26,0-.44,0-.7-.18-1.23-.62-3.78-3.17-3.78-6.77,0-1.85.62-3.87,2.38-6.16,8.01-10.03,29.56-14.52,48.65-14.52,18.04,0,33.78,4.05,33.78,11.17,0,1.67-.79,3.43-2.55,5.37-8.97,9.77-39.77,21.03-52.87,26.3-1.41.7-2.73,2.29-2.73,3.96,0,.35.26.44.88.44h.44s1.06-.09,1.06-.09h.44c4.05-.26,8.36-.44,12.67-.44,5.81,0,11.7.26,17.24,1.06,2.64.44,4.14,1.85,4.14,3.43ZM299.81,155.8c-4.75,0-9.41.26-12.4.88-1.85.44-2.02.44-2.55,2.11-.79,2.55-1.76,5.19-2.38,7.83v.53c0,.53.18.62.7.62.44,0,1.06-.09,1.94-.18,8.89-.7,22.61-3.52,30.26-6.42,3.61-1.41,5.89-2.38,5.89-3.08,0-.62-1.76-1.14-5.98-1.58-3.7-.35-9.77-.7-15.48-.7ZM278.08,154.65c0,.09.26.09.7.09.7,0,1.94-.09,3.17-.18,1.23-.18,1.76-.26,2.02-1.58,0-.18.09-.26.09-.35,0-.26-.18-.35-.35-.35-.26,0-.7.18-1.32.44-.26.09-.53.18-.88.26-1.76.79-3.43,1.41-3.43,1.67Z"/>
        <path class="cls-1" d="M352.51,172.34v.18c0,1.32-.79,1.94-1.67,1.94-.79,0-1.67-.7-1.85-1.94-.09-.18-.09-.35-.09-.44v-.44c0-6.86,9.59-28.42,12.58-35.89.09-.26.09-.35.09-.53,0-.09-.09-.18-.26-.18-.53,0-1.58.62-2.11.79-3.96,1.94-7.74,3.61-12.14,4.57-.62.09-.62.53-.62,1.06l.09.44v.97c0,5.54-5.28,13.64-9.41,15.48-.62.26-1.14.44-1.67.44-1.32-.09-2.2-1.23-2.38-3.08v-.44c0-3.17,1.85-8.36,6.51-13.46.53-.53,2.64-2.2,3.25-2.2.53-2.2,7.65-.53,19.79-8.89,1.23-.79,2.02-1.76,2.64-2.9,1.76-3.61,10.21-20.15,14.87-22.08.44-.09.79-.18,1.06-.18,1.06,0,1.85.7,1.94,1.85v.44c0,1.85-1.06,3.96-1.85,5.45-6.42,11.7-14.08,16.63-14.96,18.47-3.25,7.04-13.99,32.11-14.25,38.97.26.62.44,1.14.44,1.58ZM343.8,143.83v-.7c0-.44-.18-.7-.44-.7-.7,0-2.11,1.5-2.64,2.11-2.64,3.08-4.93,8.36-4.93,10.38v.18c0,.44.18.62.44.62.53,0,1.58-.7,3.17-2.64,1.76-2.29,4.05-6.25,4.4-9.24ZM379.95,109.44c-1.32,0-9.33,13.46-9.33,13.9,1.23,0,9.33-12.05,9.33-13.9Z"/>
        <path class="cls-1" d="M374.15,140.31c.26-.18.53-.35.88-.35.79,0,1.58.79,1.58,1.5,0,.44-.26.7-.79,1.23-2.99,3.17-5.54,8.62-5.54,12.05,0,1.23.53,2.11,1.85,2.11.35,0,.79-.09,1.32-.26,6.42-1.85,16.54-8.53,22.17-13.46.18-.18.35-.18.53-.18.53,0,.97.44.97.88,0,.18,0,.35-.09.44-4.31,4.84-17.77,13.46-23.4,15.13-.79.18-1.5.35-2.11.35-2.73,0-4.4-1.85-4.4-4.66,0-4.4,4.22-11.7,7.04-14.78ZM378.02,137.59h-.18c-.18,0-.35-.18-.35-.44v-.35c0-1.06.7-2.9,2.55-5.28.18-.26.44-.35.7-.35.62,0,1.5.44,1.67,1.14,0,.09,0,.18-.09.26-.53,1.23-2.64,4.93-4.31,5.01Z"/>
        <path class="cls-1" d="M395.52,161.6c-1.5,0-2.82-.79-3.34-2.9-.09-.7-.18-1.5-.18-2.38,0-5.98,3.52-14.6,5.37-19.18.26-.53.7-.7,1.23-.7.88,0,2.02.79,2.02,1.58,0,.09,0,.18-.09.26-.18.44-2.37,4.58-3.78,9.06-1.06,3.34-1.94,6.77-1.94,8.97,0,1.14.26,2.02.79,2.2.18.09.26.09.44.09,2.55,0,8.27-7.21,9.59-9.15,2.37-3.08,2.73-3.61,2.73-4.66,0-.53-.09-1.14-.09-2.29v-.53c.09-3.43,1.14-7.04,2.99-9.94.79-1.41,1.85-2.02,2.82-2.02,1.23,0,2.2,1.14,2.2,3.26,0,.62-.09,1.32-.26,2.2-.79,2.99-2.2,6.16-3.61,8.89-.18.44-.35.79-.35,1.06,0,.35.18.7.44,1.14,1.5,2.38,3.87,3.43,6.51,3.43,1.23,0,3.61-.44,4.66-1.14.18-.18.44-.18.62-.18.62,0,1.14.53,1.14,1.06,0,.35-.18.62-.53.97-1.32.97-3.69,1.58-5.37,1.67h-.62c-3.08,0-5.72-1.14-7.92-3.52-.35-.26-.53-.44-.7-.44-.26,0-.44.26-.7.7-3.87,5.1-4.57,6.25-9.41,10.47-1.23,1.06-3.08,2.02-4.66,2.02ZM411.1,140.84v.09q.09,0,.18-.09l1.67-4.57c.26-.79.35-1.23.35-1.5,0-.18,0-.26-.09-.26-.26,0-.7.62-1.06,1.58,0,.18-1.06,3.87-1.06,4.75Z"/>
        <path class="cls-1" d="M428.25,140.31c.26-.18.53-.35.88-.35.79,0,1.58.79,1.58,1.5,0,.44-.26.7-.79,1.23-2.99,3.17-5.54,8.62-5.54,12.05,0,1.23.53,2.11,1.85,2.11.35,0,.79-.09,1.32-.26,6.42-1.85,16.54-8.53,22.17-13.46.18-.18.35-.18.53-.18.53,0,.97.44.97.88,0,.18,0,.35-.09.44-4.31,4.84-17.77,13.46-23.4,15.13-.79.18-1.5.35-2.11.35-2.73,0-4.4-1.85-4.4-4.66,0-4.4,4.22-11.7,7.04-14.78ZM432.12,137.59h-.18c-.18,0-.35-.18-.35-.44v-.35c0-1.06.7-2.9,2.55-5.28.18-.26.44-.35.7-.35.62,0,1.5.44,1.67,1.14,0,.09,0,.18-.09.26-.53,1.23-2.64,4.93-4.31,5.01Z"/>
        <path class="cls-1" d="M444.35,158.88c-1.23,0-1.94-.79-1.94-2.2,0-1.23.44-2.99,1.58-5.1,2.99-5.98,9.41-14.52,15.75-17.33.88-.44,1.76-.62,2.46-.62,2.9,0,3.34,2.46,3.34,4.75-.09.44-.09.7-.09.97,0,1.41.62,1.23.62,2.2,0,.35-.09.79-.26,1.5-1.06,3.78-2.29,5.72-2.64,10.56v.35c0,1.23.62,1.85,1.58,1.85,3.87,0,13.81-8.45,16.89-12.49.18-.26.44-.35.7-.35.44,0,.88.35.88.88,0,.26,0,.44-.18.62-2.82,4.49-12.23,13.28-17.51,13.99-.35.09-.7.09-1.06.09-2.02,0-3.69-.97-4.05-3.52,0-.44-.09-.88-.09-1.23,0-3.17,1.32-6.33,1.32-7.39,0-.18-.09-.26-.18-.26-.18,0-.53.18-.97.62l-10.73,9.33c-2.29,1.94-4.14,2.82-5.45,2.82ZM462.3,141.37c.44-.53.62-1.23.62-1.94,0-.88-.09-2.99-1.23-2.99-.35,0-.79.18-1.23.44-5.37,2.82-9.77,8.27-12.84,13.72-1.41,2.46-2.2,4.05-2.2,4.57,0,.18.09.26.26.26.44,0,1.76-.88,4.05-2.73,4.4-3.52,8.45-7.48,12.58-11.35Z"/>
        <path class="cls-1" d="M478.22,158.17h-.18c-1.14,0-2.2-.7-2.2-1.76,0-1.06,8.27-21.03,9.06-22.08.18-.26.44-.35.7-.35h.18c.79,0,1.67.53,1.67,1.06,0,.09,0,.18-.09.26-2.11,5.01-5.1,10.47-6.69,15.57-.09.18-.09.26-.09.35,0,.18.09.26.09.26h.09c.18,0,.35-.09.53-.44,2.55-3.34,8.97-11.7,12.49-13.55.7-.44,1.32-.62,1.85-.7h.18c4.31,0,.18,12.58,4.4,13.11.18.09.44.09.62.09,3.78-.35,12.49-5.28,15.4-7.04.18-.18.35-.18.44-.18h.18c.53,0,.79.44.79.97,0,.26-.09.53-.35.79-2.38,1.85-12.93,7.65-16.98,8.01h-.35c-4.66,0-4.84-5.37-4.84-8.97v-.79c0-1.41,0-2.38-.44-2.46h-.18c-2.73.26-12.14,12.84-14.6,16.98-.35.53-1.06.79-1.67.88Z"/>
        <path class="cls-1" d="M510.95,154.04c0-6.07,5.72-13.72,11.09-16.28.18-.09.35-.09.53-.09h.09c.79,0,1.23.7,1.23,1.41,0,.44-.18.88-.62,1.06-6.86,3.69-9.68,10.03-9.68,13.64,0,1.58.53,2.73,1.58,2.73h.18c4.22-.26,9.59-10.73,10.29-15.75-.26-1.32-.7-3.17-.7-4.84,0-1.76.53-3.34,2.11-3.69h.26c1.67,0,1.85,1.85,1.85,3.34,0,.79-.09,1.5-.18,2.02-.09.44-.09.88-.09,1.32,0,4.05,3.78,6.51,8.18,6.51h.7c2.02-.18,4.22-.79,6.34-2.11l.09-.09c.62,0,1.06.79,1.06,1.41,0,.35-.18.7-.44.79-2.29,1.23-5.02,1.94-7.57,2.11h-1.06c-2.64,0-5.19-.62-7.21-2.29-.7-.62-1.06-1.06-1.32-1.06s-.44.7-1.23,2.55c-1.67,4.05-6.25,11.88-11,12.23-.44,0-.88-.09-1.32-.18-2.2-.62-3.17-2.38-3.17-4.75Z"/>
      </g>
    </g>
  </g>
</svg>