<?xml version="1.0" encoding="UTF-8"?>
<svg id="Capa_2" data-name="Capa 2" xmlns="http://www.w3.org/2000/svg" viewBox="0 0 779.71 175.05">
  <defs>
    <style>
      .cls-1, .cls-2 {
        fill: #fff;
      }

      .cls-1, .cls-3 {
        letter-spacing: .02em;
      }

      .cls-4 {
        font-family: PoplarStd, 'Poplar Std';
        font-size: 87.65px;
      }

      .cls-5 {
        letter-spacing: -.06em;
      }

      .cls-6, .cls-7 {
        letter-spacing: .03em;
      }

      .cls-6, .cls-8 {
        fill: #db0812;
      }

      .cls-9 {
        letter-spacing: 0em;
      }
    </style>
  </defs>
  <g id="Capa_1-2" data-name="Capa 1">
    <g>
      <g>
        <g>
          <path class="cls-2" d="M94.85,50.7c0-.59-.59-1.18-1.18-1.18-5.11,0-5.7,0-5.7-1.38V8.07c0-.79.79-1.57,1.77-1.57h43.02c.79,0,1.57.79,1.57,1.57v142.24c0,.79-.59,1.57-1.38,1.57h-36.74c-.59,0-1.37-.59-1.37-1.37V50.7Z"/>
          <path class="cls-2" d="M218.03,111.21c.98,0,1.57.79,1.57,1.77v37.33c0,.98-.59,1.57-1.96,1.57h-74.66c-.79,0-1.77-.59-1.77-1.38v-39.29c0-1.57.59-3.73,1.97-5.89,14.54-22.4,40.86-36.54,40.86-53.04,0-2.75-.79-4.52-2.75-4.52-2.75,0-5.11,5.7-5.11,11.59,0,.98-.79,1.57-1.57,1.57l-30.45-1.38c-2.36-.2-2.36-.98-2.36-8.84,0-23.97,13.75-44.2,38.7-44.2s40.47,20.43,40.47,43.61c0,29.47-16.31,42.63-39.69,58.94-.39.39-.79.98-.79,1.38,0,.59.39.79,1.18.79h36.35Z"/>
        </g>
        <polygon class="cls-8" points="87.98 72.99 56.4 72.99 56.4 41.41 31.58 41.41 31.58 72.99 0 72.99 0 97.81 31.58 97.81 31.58 129.39 56.4 129.39 56.4 97.81 87.98 97.81 87.98 72.99"/>
      </g>
      <text class="cls-4" transform="translate(232.99 72.75)"><tspan class="cls-1" x="0" y="0">BOTELLAS DE</tspan><tspan class="cls-6" x="424.37" y="0"> </tspan><tspan class="cls-8"><tspan class="cls-7" x="0" y="78.2">TU RON </tspan><tspan class="cls-5" x="240.41" y="78.2">FA</tspan><tspan class="cls-9" x="310" y="78.2">V</tspan><tspan class="cls-3" x="353.38" y="78.2">ORITO</tspan></tspan></text>
    </g>
  </g>
</svg>