<?xml version="1.0" encoding="UTF-8"?>
<svg id="Capa_2" data-name="Capa 2" xmlns="http://www.w3.org/2000/svg" viewBox="0 0 272.69 120.74">
  <defs>
    <style>
      .cls-1 {
        fill: #e11030;
      }
    </style>
  </defs>
  <g id="Capa_1-2" data-name="Capa 1">
    <path class="cls-1" d="M61,95.79l1.52-9.98.54-3.53,1.01-6.62,1.08-7.08c.68-3.38,1.35-6.77,2.03-10.15,1.46-7.3,2.93-14.6,4.38-21.91.11-.55.37-.86.85-1.11,2.61-1.36,4.63-3.36,6.17-5.84.7-1.13,1.35-2.32,1.85-3.55,2.2-5.53,2.48-11.14.44-16.78-.76-2.11-1.92-3.99-3.5-5.59-3.88-3.95-9.34-4.75-14.19-2.09-2.36,1.3-4.21,3.14-5.71,5.36-.25.37-.5.75-.77,1.15-.36-.07-.66-.12-.95-.18-3.7-.74-7.39-1.61-11.12-2.21-5.14-.83-10.32-1.21-15.52-.72-1.89.18-3.78.56-5.62,1.03-3.18.82-4.92,3.03-5.53,6.2-.25,1.31-.52,2.62-.79,3.93-2.57,12.53-5.14,25.07-7.7,37.6-1.88,9.18-3.75,18.36-5.62,27.54-.56,2.76-1.12,5.51-1.69,8.27-.03.12-.07.24-.12.38l-1.51,7.24-.5,2.4s1.49,3.67,5.1,7.86c1.8,2.08,4.12,4.28,7.05,6.24.06.03.12.06.18.1.88.58,1.78,1.11,2.67,1.61,8.47,4.75,17.63,6.27,27.42,4.89,2.24-.31,4.41-.91,6.52-1.7h0s.54-.15,1.37-.47c1.24-.48,3.13-1.32,4.83-2.5,1.55-1.08,2.93-2.45,3.47-4.11l2.38-15.67ZM59.74,68.62s0,0,0,0c-.09.45-.18.91-.27,1.36-.08,0-.15-.01-.23-.02-.19-.61-.39-1.22-.57-1.84-.33-1.11-.98-1.97-1.92-2.63-2.4-1.7-4.85-3.33-7.52-4.58-.66-.31-1.33-.58-2.01-.84-1.43-.55-2.83-.54-4.21.17-.71.37-1.47.6-2.37.62-.19-.8-.37-1.57-.59-2.5.64.09,1.11.15,1.58.22,3.86.56,7.74.85,11.65.56,2.84-.21,5.61-.68,8.18-1.99.13-.06.28-.07.6-.15-.79,3.94-1.55,7.78-2.32,11.61ZM32.83,56.72c-.71.56-6.79,2.43-9.03,2.77-.73-2.19-1.36-4.44-1.87-7.02,3.65,1.91,7.21,3.2,10.9,4.26ZM25.17,48.09c1-.9,5.84-1.79,8.3-1.51.5,1.63,1.02,3.32,1.62,5.27-3.64-.91-6.85-2.12-9.92-3.76ZM24.29,63.47c1.85-.47,3.71-.89,5.55-1.42,1.54-.45,3.04-1.02,4.56-1.54.39-.13.79-.28,1.29-.45.18.44.35.84.55,1.32-.87.17-1.64.25-2.35.47-1.01.31-2.16.52-2.95,1.15-1.05.84-1.83,2.02-2.68,3.09-.3.38-.49.86-.71,1.3-.17.33-.36.54-.79.53-1.49-.03-2.98-.02-4.46-.04-.1,0-.21-.07-.31-.11.44-1.24.88-2.45,1.31-3.67.17-.49.6-.53,1.01-.63ZM23.17,80.15c.91,1.1,1.8,2.17,2.76,3.33-.38.02-.67.04-.95.05-1.97.06-3.95.13-5.92.18-.24,0-.55-.04-.73-.19-1.11-.93-2.19-1.89-3.28-2.84-.04-.04-.03-.13-.06-.33,2.73-.07,5.45-.13,8.18-.2ZM20.9,88.06c.3-.05.61-.07.91-.08,3.24-.13,6.49-.26,9.73-.39.22,0,.44.02.73.03.22,3.23.45,6.42.62,9.61.04.79-.1,1.6-.21,2.39-.09.63-.49,1.02-1.11,1.17-.41.1-.82.2-1.23.26-2.54.35-5.09.44-7.66.29-.27-.02-.53-.07-.8-.09-.58-.06-.9-.36-.94-.95-.04-.53-.11-1.06-.16-1.6-.23-2.89-.46-5.78-.69-8.68-.03-.34-.06-.69-.05-1.03.01-.74.09-.82.84-.94ZM32.27,81.3c-1.09-.62-2.1-1.39-3.06-2.2-1.32-1.11-1.36-1.52-.66-3.07.65-1.42,1.33-2.83,1.96-4.26.41-.94.75-1.92,1.15-2.87.41-.98.65-1.14,1.67-.79,1.59.54,3.13,1.2,4.09,1.58,2.55,1.12,4.52,1.95,6.46,2.84,1.69.78,1.83.97,1.54,2.79-.17,1.08-.51,2.16-.98,3.15-.87,1.86-1.88,3.66-2.85,5.48-.18.33-.39.67-.64.94-.43.47-.93.56-1.44.29-2.42-1.29-4.87-2.54-7.25-3.89ZM39.68,66.15c-.13-.07-.25-.16-.49-.32.22-.13.35-.23.5-.29,1.35-.52,2.71-1.01,4.05-1.56.51-.21.97-.41,1.52-.12,2.64,1.37,5.28,2.72,8.14,4.2-.53.36-.91.67-1.33.9-.97.54-1.96,1.04-2.93,1.56-.35.19-.66.28-1.06.06-2.79-1.49-5.6-2.96-8.39-4.44ZM48.41,82.4c.83-1.63,1.86-3.23,1.94-5.09.07-1.6.75-2.39,2.23-2.74.61-.15,1.18-.5,1.88-.82-.02.32,0,.53-.06.73-.78,2.75-1.59,5.49-2.36,8.24-.26.93-.79,1.49-1.75,1.74-.88.22-1.73.6-2.59.89-.24.08-.48.12-.96.24.63-1.2,1.16-2.19,1.67-3.19ZM76.27,13.05c1.53,2.92.41,10.82-2.81,14.13.12-.66.23-1.32.37-1.98.31-1.41.64-2.82.96-4.23.37-1.65.25-3.19-1.08-4.43-.14-.13-.23-.3-.42-.55,1-.98,1.99-1.95,2.99-2.94ZM66.88,5.66c1.92-.68,3.76-.48,5.47.65,1.3.86,2.25,2.03,2.99,3.54-1.63.31-2.59,1.53-3.74,2.49-.48.4-.86.97-1.69,1.12-.03-.42-.09-.78-.07-1.14.05-.87.15-1.75.2-2.62.03-.45.05-.92-.03-1.37-.14-.83-.75-1.33-1.48-1.33-.74,0-1.38.51-1.5,1.32-.09.6-.05,1.21-.04,1.82,0,.49.04.97.08,1.63-1.76-.7-3.36-1.34-5.14-2.06,1.39-1.91,2.89-3.32,4.95-4.05ZM67.18,31.48c-1.19.22-2.19.07-3.26-.57,1.64-1.2,2.3-2.92,3.09-4.55.26-.54.61-.71,1.31-.56-.39,1.92-.76,3.8-1.14,5.68ZM62.79,30.04c-1.17-1.02-1.99-2.18-2.63-3.66,1.04-.03,1.91-.05,2.91-.08-.1,1.29-.18,2.45-.28,3.75ZM62.23,15.55c-.54.21-.88.33-1.21.48-.8.36-1.19.95-1.13,1.68.06.74.51,1.26,1.4,1.43.82.16,1.66.2,2.5.28.56.05,1.12.09,1.69.13-.22,1.2-.24,1.26-1.25,1.33-1.56.09-3.12.13-4.69.18-.18,0-.36-.05-.64-.1-.14-2.14.1-4.19.73-6.33.89.32,1.62.58,2.59.92ZM24.74,11.08c1.15-.28,2.29-.61,3.46-.75,4.31-.53,8.61-.28,12.91.18,4.1.44,8.16,1.18,12.16,2.16.3.07.59.16.88.26.1.03.19.12.22.14-.32,2.53-.63,5.01-.96,7.58-.25,0-.59,0-.92-.04-6.01-.65-11.91-1.85-17.67-3.7-2.95-.95-5.8-2.14-8.49-3.69-.79-.45-1.61-.87-2.22-1.73.23-.15.41-.36.63-.42ZM18.91,36.61c-.13.05-.29.05-.6.09,1.34-6.54,2.65-12.99,3.99-19.51.26.08.42.09.53.16,3.45,2.29,7.29,3.64,11.21,4.84,6.33,1.94,12.81,3.2,19.4,3.79.78.07,1.09.37,1.36,1.07.48,1.24,1.03,2.47,1.71,3.61,1.92,3.23,4.82,5.13,8.48,5.9.33.07.65.17,1.13.29-.71,3.52-1.39,6.91-2.09,10.4-.24-.18-.38-.25-.47-.36-2.02-2.43-4.61-4.11-7.41-5.46-8.91-4.3-18.34-6.38-28.24-6.33-3.07.02-6.09.39-8.99,1.5ZM19.28,43.57c-.35-.67-.29-1.05.38-1.44.62-.37,1.29-.72,1.98-.87,1.56-.34,3.14-.65,4.73-.78,4.1-.34,8.16.08,12.19.79,4.56.81,9,2.06,13.26,3.93,2,.88,3.93,1.88,5.66,3.22.6.46,1.18.97,1.69,1.53,1.25,1.38,1.09,2.01-.64,2.77-.42.18-.85.34-1.29.46-.66.18-1.33.34-2.01.45-5.36.81-10.65.25-15.98-.74-.09-.31-.17-.6-.25-.88-.69-2.5-1.33-5.01-2.07-7.5-.44-1.49-1.63-2.25-3.07-2.64-1.65-.45-3.32-.44-5-.27-2.84.29-5.51,1.22-8.12,2.3-.28.12-.56.23-.95.4-.21-.28-.39-.48-.51-.71ZM16.89,52.47c.16.35.24.51.3.68.68,1.98,1.32,3.97,2.04,5.94.31.84.33,1.6-.08,2.41-.41.81-.74,1.66-1.16,2.62-.16-.23-.29-.35-.34-.5-.62-2-1.25-4-1.83-6.01-.53-1.82.14-3.41,1.08-5.14ZM10.51,74.87h0c.77-3.78,1.53-7.52,2.3-11.25.1,0,.21.01.31.02.25.67.46,1.36.75,2.02.51,1.15.97,2.33,1.62,3.4,1.29,2.12,3.25,3.16,5.74,3.12.91-.02,1.82-.16,2.73-.25.37-.04.74-.08,1.3-.14-.71,1.31-1.33,2.46-1.98,3.65-4.35-.07-8.63.76-13.12,1.16.12-.58.23-1.14.35-1.72ZM10.46,82.73c.6.49,1.1.88,1.59,1.28.97.8,1.93,1.61,2.91,2.4.32.26.51.53.39.98-.34,1.35-.22,2.72-.07,4.09.14,1.36.32,2.72.47,4.08.04.37.06.74.11,1.27-.24-.15-.38-.2-.46-.29-1.46-1.6-2.91-3.22-4.38-4.82-.6-.65-.91-1.39-.88-2.27.05-1.94.08-3.88.13-5.82,0-.25.1-.49.2-.89ZM48.77,112.7c-.64.4-1.29.76-1.93,1.01-4.93,1.75-10.01,2.12-15.17,1.53-5.75-.65-11.12-2.4-15.96-5.61-.19-.12-.38-.23-.56-.36-.19-.13-.37-.28-.55-.42-1.76-1.3-3.32-2.8-4.64-4.55-.29-.39-.47-.86-.66-1.31-.82-1.89-1.52-3.84-2.49-5.65-.64-1.19-.6-2.21-.06-3.46.29.29.52.52.75.75,2.34,2.41,4.65,4.85,7.02,7.23,1.27,1.28,2.74,2.34,4.49,2.88.98.3,1.98.61,2.99.69,3.4.26,6.78-.05,10.13-.71,3.03-.6,4.81-2.42,5.58-5.37.73-2.8.49-5.6.11-8.41-.06-.44-.12-.88-.19-1.42.36.06.58.09.8.14,1.41.33,2.83.63,4.23,1,1.34.35,2.67.28,3.96-.1,1.57-.47,3.1-1.07,4.65-1.61.2-.07.41-.14.82-.29l4.41-1.62c-.54,3.07-1.1,6.2-1.61,9.12-.53,3-1.02,5.77-1.42,8.03-.61,3.43-1,5.68-1,5.68,0,0-1.72,1.61-3.67,2.84Z"/>
    <path class="cls-1" d="M156.23,95.79l1.52-9.98.54-3.53,1.01-6.62,1.08-7.08c.68-3.38,1.35-6.77,2.03-10.15,1.46-7.3,2.93-14.6,4.38-21.91.11-.55.37-.86.85-1.11,2.61-1.36,4.63-3.36,6.17-5.84.7-1.13,1.35-2.32,1.85-3.55,2.2-5.53,2.48-11.14.44-16.78-.76-2.11-1.92-3.99-3.5-5.59-3.88-3.95-9.34-4.75-14.19-2.09-2.36,1.3-4.21,3.14-5.71,5.36-.25.37-.5.75-.77,1.15-.36-.07-.66-.12-.95-.18-3.7-.74-7.39-1.61-11.12-2.21-5.14-.83-10.32-1.21-15.52-.72-1.89.18-3.78.56-5.62,1.03-3.18.82-4.92,3.03-5.53,6.2-.25,1.31-.52,2.62-.79,3.93-2.57,12.53-5.14,25.07-7.7,37.6-1.88,9.18-3.75,18.36-5.62,27.54-.56,2.76-1.12,5.51-1.69,8.27-.03.12-.07.24-.12.38l-1.51,7.24-.5,2.4s1.49,3.67,5.1,7.86c1.8,2.08,4.12,4.28,7.05,6.24.06.03.12.06.18.1.88.58,1.78,1.11,2.67,1.61,8.47,4.75,17.63,6.27,27.42,4.89,2.24-.31,4.41-.91,6.52-1.7h0s.54-.15,1.37-.47c1.24-.48,3.13-1.32,4.83-2.5,1.55-1.08,2.93-2.45,3.47-4.11l2.38-15.67ZM154.97,68.62s0,0,0,0c-.09.45-.18.91-.27,1.36-.08,0-.15-.01-.23-.02-.19-.61-.39-1.22-.57-1.84-.33-1.11-.98-1.97-1.92-2.63-2.4-1.7-4.85-3.33-7.52-4.58-.66-.31-1.33-.58-2.01-.84-1.43-.55-2.83-.54-4.21.17-.71.37-1.47.6-2.37.62-.19-.8-.37-1.57-.59-2.5.64.09,1.11.15,1.58.22,3.86.56,7.74.85,11.65.56,2.84-.21,5.61-.68,8.18-1.99.13-.06.28-.07.6-.15-.79,3.94-1.55,7.78-2.32,11.61ZM128.06,56.72c-.71.56-6.79,2.43-9.03,2.77-.73-2.19-1.36-4.44-1.87-7.02,3.65,1.91,7.21,3.2,10.9,4.26ZM120.4,48.09c1-.9,5.84-1.79,8.3-1.51.5,1.63,1.02,3.32,1.62,5.27-3.64-.91-6.85-2.12-9.92-3.76ZM119.52,63.47c1.85-.47,3.71-.89,5.55-1.42,1.54-.45,3.04-1.02,4.56-1.54.39-.13.79-.28,1.29-.45.18.44.35.84.55,1.32-.87.17-1.64.25-2.35.47-1.01.31-2.16.52-2.95,1.15-1.05.84-1.83,2.02-2.68,3.09-.3.38-.49.86-.71,1.3-.17.33-.36.54-.79.53-1.49-.03-2.98-.02-4.46-.04-.1,0-.21-.07-.31-.11.44-1.24.88-2.45,1.31-3.67.17-.49.6-.53,1.01-.63ZM118.39,80.15c.91,1.1,1.8,2.17,2.76,3.33-.38.02-.67.04-.95.05-1.97.06-3.95.13-5.92.18-.24,0-.55-.04-.73-.19-1.11-.93-2.19-1.89-3.28-2.84-.04-.04-.03-.13-.06-.33,2.73-.07,5.45-.13,8.18-.2ZM116.13,88.06c.3-.05.61-.07.91-.08,3.24-.13,6.49-.26,9.73-.39.22,0,.44.02.73.03.22,3.23.45,6.42.62,9.61.04.79-.1,1.6-.21,2.39-.09.63-.49,1.02-1.11,1.17-.41.1-.82.2-1.23.26-2.54.35-5.09.44-7.66.29-.27-.02-.53-.07-.8-.09-.58-.06-.9-.36-.94-.95-.04-.53-.11-1.06-.16-1.6-.23-2.89-.46-5.78-.69-8.68-.03-.34-.06-.69-.05-1.03.01-.74.09-.82.84-.94ZM127.5,81.3c-1.09-.62-2.1-1.39-3.06-2.2-1.32-1.11-1.36-1.52-.66-3.07.65-1.42,1.33-2.83,1.96-4.26.41-.94.75-1.92,1.15-2.87.41-.98.65-1.14,1.67-.79,1.59.54,3.13,1.2,4.09,1.58,2.55,1.12,4.52,1.95,6.46,2.84,1.69.78,1.83.97,1.54,2.79-.17,1.08-.51,2.16-.98,3.15-.87,1.86-1.88,3.66-2.85,5.48-.18.33-.39.67-.64.94-.43.47-.93.56-1.44.29-2.42-1.29-4.87-2.54-7.25-3.89ZM134.91,66.15c-.13-.07-.25-.16-.49-.32.22-.13.35-.23.5-.29,1.35-.52,2.71-1.01,4.05-1.56.51-.21.97-.41,1.52-.12,2.64,1.37,5.28,2.72,8.14,4.2-.53.36-.91.67-1.33.9-.97.54-1.96,1.04-2.93,1.56-.35.19-.66.28-1.06.06-2.79-1.49-5.6-2.96-8.39-4.44ZM143.64,82.4c.83-1.63,1.86-3.23,1.94-5.09.07-1.6.75-2.39,2.23-2.74.61-.15,1.18-.5,1.88-.82-.02.32,0,.53-.06.73-.78,2.75-1.59,5.49-2.36,8.24-.26.93-.79,1.49-1.75,1.74-.88.22-1.73.6-2.59.89-.24.08-.48.12-.96.24.63-1.2,1.16-2.19,1.67-3.19ZM171.5,13.05c1.53,2.92.41,10.82-2.81,14.13.12-.66.23-1.32.37-1.98.31-1.41.64-2.82.96-4.23.37-1.65.25-3.19-1.08-4.43-.14-.13-.23-.3-.42-.55,1-.98,1.99-1.95,2.99-2.94ZM162.11,5.66c1.92-.68,3.76-.48,5.47.65,1.3.86,2.25,2.03,2.99,3.54-1.63.31-2.59,1.53-3.74,2.49-.48.4-.86.97-1.69,1.12-.03-.42-.09-.78-.07-1.14.05-.87.15-1.75.2-2.62.03-.45.05-.92-.03-1.37-.14-.83-.75-1.33-1.48-1.33-.74,0-1.38.51-1.5,1.32-.09.6-.05,1.21-.04,1.82,0,.49.04.97.08,1.63-1.76-.7-3.36-1.34-5.14-2.06,1.39-1.91,2.89-3.32,4.95-4.05ZM162.41,31.48c-1.19.22-2.19.07-3.26-.57,1.64-1.2,2.3-2.92,3.09-4.55.26-.54.61-.71,1.31-.56-.39,1.92-.76,3.8-1.14,5.68ZM158.02,30.04c-1.17-1.02-1.99-2.18-2.63-3.66,1.04-.03,1.91-.05,2.91-.08-.1,1.29-.18,2.45-.28,3.75ZM157.46,15.55c-.54.21-.88.33-1.21.48-.8.36-1.19.95-1.13,1.68.06.74.51,1.26,1.4,1.43.82.16,1.66.2,2.5.28.56.05,1.12.09,1.69.13-.22,1.2-.24,1.26-1.25,1.33-1.56.09-3.12.13-4.69.18-.18,0-.36-.05-.64-.1-.14-2.14.1-4.19.73-6.33.89.32,1.62.58,2.59.92ZM119.97,11.08c1.15-.28,2.29-.61,3.46-.75,4.31-.53,8.61-.28,12.91.18,4.1.44,8.16,1.18,12.16,2.16.3.07.59.16.88.26.1.03.19.12.22.14-.32,2.53-.63,5.01-.96,7.58-.25,0-.59,0-.92-.04-6.01-.65-11.91-1.85-17.67-3.7-2.95-.95-5.8-2.14-8.49-3.69-.79-.45-1.61-.87-2.22-1.73.23-.15.41-.36.63-.42ZM114.14,36.61c-.13.05-.29.05-.6.09,1.34-6.54,2.65-12.99,3.99-19.51.26.08.42.09.53.16,3.45,2.29,7.29,3.64,11.21,4.84,6.33,1.94,12.81,3.2,19.4,3.79.78.07,1.09.37,1.36,1.07.48,1.24,1.03,2.47,1.71,3.61,1.92,3.23,4.82,5.13,8.48,5.9.33.07.65.17,1.13.29-.71,3.52-1.39,6.91-2.09,10.4-.24-.18-.38-.25-.47-.36-2.02-2.43-4.61-4.11-7.41-5.46-8.91-4.3-18.34-6.38-28.24-6.33-3.07.02-6.09.39-8.99,1.5ZM114.51,43.57c-.35-.67-.29-1.05.38-1.44.62-.37,1.29-.72,1.98-.87,1.56-.34,3.14-.65,4.73-.78,4.1-.34,8.16.08,12.19.79,4.56.81,9,2.06,13.26,3.93,2,.88,3.93,1.88,5.66,3.22.6.46,1.18.97,1.69,1.53,1.25,1.38,1.09,2.01-.64,2.77-.42.18-.85.34-1.29.46-.66.18-1.33.34-2.01.45-5.36.81-10.65.25-15.98-.74-.09-.31-.17-.6-.25-.88-.69-2.5-1.33-5.01-2.07-7.5-.44-1.49-1.63-2.25-3.07-2.64-1.65-.45-3.32-.44-5-.27-2.84.29-5.51,1.22-8.12,2.3-.28.12-.56.23-.95.4-.21-.28-.39-.48-.51-.71ZM112.12,52.47c.16.35.24.51.3.68.68,1.98,1.32,3.97,2.04,5.94.31.84.33,1.6-.08,2.41-.41.81-.74,1.66-1.16,2.62-.16-.23-.29-.35-.34-.5-.62-2-1.25-4-1.83-6.01-.53-1.82.14-3.41,1.08-5.14ZM105.74,74.87h0c.77-3.78,1.53-7.52,2.3-11.25.1,0,.21.01.31.02.25.67.46,1.36.75,2.02.51,1.15.97,2.33,1.62,3.4,1.29,2.12,3.25,3.16,5.74,3.12.91-.02,1.82-.16,2.73-.25.37-.04.74-.08,1.3-.14-.71,1.31-1.33,2.46-1.98,3.65-4.35-.07-8.63.76-13.12,1.16.12-.58.23-1.14.35-1.72ZM105.69,82.73c.6.49,1.1.88,1.59,1.28.97.8,1.93,1.61,2.91,2.4.32.26.51.53.39.98-.34,1.35-.22,2.72-.07,4.09.14,1.36.32,2.72.47,4.08.04.37.06.74.11,1.27-.24-.15-.38-.2-.46-.29-1.46-1.6-2.91-3.22-4.38-4.82-.6-.65-.91-1.39-.88-2.27.05-1.94.08-3.88.13-5.82,0-.25.1-.49.2-.89ZM144,112.7c-.64.4-1.29.76-1.93,1.01-4.93,1.75-10.01,2.12-15.17,1.53-5.75-.65-11.12-2.4-15.96-5.61-.19-.12-.38-.23-.56-.36-.19-.13-.37-.28-.55-.42-1.76-1.3-3.32-2.8-4.64-4.55-.29-.39-.47-.86-.66-1.31-.82-1.89-1.52-3.84-2.49-5.65-.64-1.19-.6-2.21-.06-3.46.29.29.52.52.75.75,2.34,2.41,4.65,4.85,7.02,7.23,1.27,1.28,2.74,2.34,4.49,2.88.98.3,1.98.61,2.99.69,3.4.26,6.78-.05,10.13-.71,3.03-.6,4.81-2.42,5.58-5.37.73-2.8.49-5.6.11-8.41-.06-.44-.12-.88-.19-1.42.36.06.58.09.8.14,1.41.33,2.83.63,4.23,1,1.34.35,2.67.28,3.96-.1,1.57-.47,3.1-1.07,4.65-1.61.2-.07.41-.14.82-.29l4.41-1.62c-.54,3.07-1.1,6.2-1.61,9.12-.53,3-1.02,5.77-1.42,8.03-.61,3.43-1,5.68-1,5.68,0,0-1.72,1.61-3.67,2.84Z"/>
    <path class="cls-1" d="M251.46,95.79l1.52-9.98.54-3.53,1.01-6.62,1.08-7.08c.68-3.38,1.35-6.77,2.03-10.15,1.46-7.3,2.93-14.6,4.38-21.91.11-.55.37-.86.85-1.11,2.61-1.36,4.63-3.36,6.17-5.84.7-1.13,1.35-2.32,1.85-3.55,2.2-5.53,2.48-11.14.44-16.78-.76-2.11-1.92-3.99-3.5-5.59-3.88-3.95-9.34-4.75-14.19-2.09-2.36,1.3-4.21,3.14-5.71,5.36-.25.37-.5.75-.77,1.15-.36-.07-.66-.12-.95-.18-3.7-.74-7.39-1.61-11.12-2.21-5.14-.83-10.32-1.21-15.52-.72-1.89.18-3.78.56-5.62,1.03-3.18.82-4.92,3.03-5.53,6.2-.25,1.31-.52,2.62-.79,3.93-2.57,12.53-5.14,25.07-7.7,37.6-1.88,9.18-3.75,18.36-5.62,27.54-.56,2.76-1.12,5.51-1.69,8.27-.03.12-.07.24-.12.38l-1.51,7.24-.5,2.4s1.49,3.67,5.1,7.86c1.8,2.08,4.12,4.28,7.05,6.24.06.03.12.06.18.1.88.58,1.78,1.11,2.67,1.61,8.47,4.75,17.63,6.27,27.42,4.89,2.24-.31,4.41-.91,6.52-1.7h0s.54-.15,1.37-.47c1.24-.48,3.13-1.32,4.83-2.5,1.55-1.08,2.93-2.45,3.47-4.11l2.38-15.67ZM250.2,68.62s0,0,0,0c-.09.45-.18.91-.27,1.36-.08,0-.15-.01-.23-.02-.19-.61-.39-1.22-.57-1.84-.33-1.11-.98-1.97-1.92-2.63-2.4-1.7-4.85-3.33-7.52-4.58-.66-.31-1.33-.58-2.01-.84-1.43-.55-2.83-.54-4.21.17-.71.37-1.47.6-2.37.62-.19-.8-.37-1.57-.59-2.5.64.09,1.11.15,1.58.22,3.86.56,7.74.85,11.65.56,2.84-.21,5.61-.68,8.18-1.99.13-.06.28-.07.6-.15-.79,3.94-1.55,7.78-2.32,11.61ZM223.29,56.72c-.71.56-6.79,2.43-9.03,2.77-.73-2.19-1.36-4.44-1.87-7.02,3.65,1.91,7.21,3.2,10.9,4.26ZM215.63,48.09c1-.9,5.84-1.79,8.3-1.51.5,1.63,1.02,3.32,1.62,5.27-3.64-.91-6.85-2.12-9.92-3.76ZM214.75,63.47c1.85-.47,3.71-.89,5.55-1.42,1.54-.45,3.04-1.02,4.56-1.54.39-.13.79-.28,1.29-.45.18.44.35.84.55,1.32-.87.17-1.64.25-2.35.47-1.01.31-2.16.52-2.95,1.15-1.05.84-1.83,2.02-2.68,3.09-.3.38-.49.86-.71,1.3-.17.33-.36.54-.79.53-1.49-.03-2.98-.02-4.46-.04-.1,0-.21-.07-.31-.11.44-1.24.88-2.45,1.31-3.67.17-.49.6-.53,1.01-.63ZM213.62,80.15c.91,1.1,1.8,2.17,2.76,3.33-.38.02-.67.04-.95.05-1.97.06-3.95.13-5.92.18-.24,0-.55-.04-.73-.19-1.11-.93-2.19-1.89-3.28-2.84-.04-.04-.03-.13-.06-.33,2.73-.07,5.45-.13,8.18-.2ZM211.36,88.06c.3-.05.61-.07.91-.08,3.24-.13,6.49-.26,9.73-.39.22,0,.44.02.73.03.22,3.23.45,6.42.62,9.61.04.79-.1,1.6-.21,2.39-.09.63-.49,1.02-1.11,1.17-.41.1-.82.2-1.23.26-2.54.35-5.09.44-7.66.29-.27-.02-.53-.07-.8-.09-.58-.06-.9-.36-.94-.95-.04-.53-.11-1.06-.16-1.6-.23-2.89-.46-5.78-.69-8.68-.03-.34-.06-.69-.05-1.03.01-.74.09-.82.84-.94ZM222.73,81.3c-1.09-.62-2.1-1.39-3.06-2.2-1.32-1.11-1.36-1.52-.66-3.07.65-1.42,1.33-2.83,1.96-4.26.41-.94.75-1.92,1.15-2.87.41-.98.65-1.14,1.67-.79,1.59.54,3.13,1.2,4.09,1.58,2.55,1.12,4.52,1.95,6.46,2.84,1.69.78,1.83.97,1.54,2.79-.17,1.08-.51,2.16-.98,3.15-.87,1.86-1.88,3.66-2.85,5.48-.18.33-.39.67-.64.94-.43.47-.93.56-1.44.29-2.42-1.29-4.87-2.54-7.25-3.89ZM230.14,66.15c-.13-.07-.25-.16-.49-.32.22-.13.35-.23.5-.29,1.35-.52,2.71-1.01,4.05-1.56.51-.21.97-.41,1.52-.12,2.64,1.37,5.28,2.72,8.14,4.2-.53.36-.91.67-1.33.9-.97.54-1.96,1.04-2.93,1.56-.35.19-.66.28-1.06.06-2.79-1.49-5.6-2.96-8.39-4.44ZM238.87,82.4c.83-1.63,1.86-3.23,1.94-5.09.07-1.6.75-2.39,2.23-2.74.61-.15,1.18-.5,1.88-.82-.02.32,0,.53-.06.73-.78,2.75-1.59,5.49-2.36,8.24-.26.93-.79,1.49-1.75,1.74-.88.22-1.73.6-2.59.89-.24.08-.48.12-.96.24.63-1.2,1.16-2.19,1.67-3.19ZM266.72,13.05c1.53,2.92.41,10.82-2.81,14.13.12-.66.23-1.32.37-1.98.31-1.41.64-2.82.96-4.23.37-1.65.25-3.19-1.08-4.43-.14-.13-.23-.3-.42-.55,1-.98,1.99-1.95,2.99-2.94ZM257.34,5.66c1.92-.68,3.76-.48,5.47.65,1.3.86,2.25,2.03,2.99,3.54-1.63.31-2.59,1.53-3.74,2.49-.48.4-.86.97-1.69,1.12-.03-.42-.09-.78-.07-1.14.05-.87.15-1.75.2-2.62.03-.45.05-.92-.03-1.37-.14-.83-.75-1.33-1.48-1.33-.74,0-1.38.51-1.5,1.32-.09.6-.05,1.21-.04,1.82,0,.49.04.97.08,1.63-1.76-.7-3.36-1.34-5.14-2.06,1.39-1.91,2.89-3.32,4.95-4.05ZM257.64,31.48c-1.19.22-2.19.07-3.26-.57,1.64-1.2,2.3-2.92,3.09-4.55.26-.54.61-.71,1.31-.56-.39,1.92-.76,3.8-1.14,5.68ZM253.25,30.04c-1.17-1.02-1.99-2.18-2.63-3.66,1.04-.03,1.91-.05,2.91-.08-.1,1.29-.18,2.45-.28,3.75ZM252.69,15.55c-.54.21-.88.33-1.21.48-.8.36-1.19.95-1.13,1.68.06.74.51,1.26,1.4,1.43.82.16,1.66.2,2.5.28.56.05,1.12.09,1.69.13-.22,1.2-.24,1.26-1.25,1.33-1.56.09-3.12.13-4.69.18-.18,0-.36-.05-.64-.1-.14-2.14.1-4.19.73-6.33.89.32,1.62.58,2.59.92ZM215.2,11.08c1.15-.28,2.29-.61,3.46-.75,4.31-.53,8.61-.28,12.91.18,4.1.44,8.16,1.18,12.16,2.16.3.07.59.16.88.26.1.03.19.12.22.14-.32,2.53-.63,5.01-.96,7.58-.25,0-.59,0-.92-.04-6.01-.65-11.91-1.85-17.67-3.7-2.95-.95-5.8-2.14-8.49-3.69-.79-.45-1.61-.87-2.22-1.73.23-.15.41-.36.63-.42ZM209.37,36.61c-.13.05-.29.05-.6.09,1.34-6.54,2.65-12.99,3.99-19.51.26.08.42.09.53.16,3.45,2.29,7.29,3.64,11.21,4.84,6.33,1.94,12.81,3.2,19.4,3.79.78.07,1.09.37,1.36,1.07.48,1.24,1.03,2.47,1.71,3.61,1.92,3.23,4.82,5.13,8.48,5.9.33.07.65.17,1.13.29-.71,3.52-1.39,6.91-2.09,10.4-.24-.18-.38-.25-.47-.36-2.02-2.43-4.61-4.11-7.41-5.46-8.91-4.3-18.34-6.38-28.24-6.33-3.07.02-6.09.39-8.99,1.5ZM209.74,43.57c-.35-.67-.29-1.05.38-1.44.62-.37,1.29-.72,1.98-.87,1.56-.34,3.14-.65,4.73-.78,4.1-.34,8.16.08,12.19.79,4.56.81,9,2.06,13.26,3.93,2,.88,3.93,1.88,5.66,3.22.6.46,1.18.97,1.69,1.53,1.25,1.38,1.09,2.01-.64,2.77-.42.18-.85.34-1.29.46-.66.18-1.33.34-2.01.45-5.36.81-10.65.25-15.98-.74-.09-.31-.17-.6-.25-.88-.69-2.5-1.33-5.01-2.07-7.5-.44-1.49-1.63-2.25-3.07-2.64-1.65-.45-3.32-.44-5-.27-2.84.29-5.51,1.22-8.12,2.3-.28.12-.56.23-.95.4-.21-.28-.39-.48-.51-.71ZM207.35,52.47c.16.35.24.51.3.68.68,1.98,1.32,3.97,2.04,5.94.31.84.33,1.6-.08,2.41-.41.81-.74,1.66-1.16,2.62-.16-.23-.29-.35-.34-.5-.62-2-1.25-4-1.83-6.01-.53-1.82.14-3.41,1.08-5.14ZM200.97,74.87h0c.77-3.78,1.53-7.52,2.3-11.25.1,0,.21.01.31.02.25.67.46,1.36.75,2.02.51,1.15.97,2.33,1.62,3.4,1.29,2.12,3.25,3.16,5.74,3.12.91-.02,1.82-.16,2.73-.25.37-.04.74-.08,1.3-.14-.71,1.31-1.33,2.46-1.98,3.65-4.35-.07-8.63.76-13.12,1.16.12-.58.23-1.14.35-1.72ZM200.91,82.73c.6.49,1.1.88,1.59,1.28.97.8,1.93,1.61,2.91,2.4.32.26.51.53.39.98-.34,1.35-.22,2.72-.07,4.09.14,1.36.32,2.72.47,4.08.04.37.06.74.11,1.27-.24-.15-.38-.2-.46-.29-1.46-1.6-2.91-3.22-4.38-4.82-.6-.65-.91-1.39-.88-2.27.05-1.94.08-3.88.13-5.82,0-.25.1-.49.2-.89ZM239.23,112.7c-.64.4-1.29.76-1.93,1.01-4.93,1.75-10.01,2.12-15.17,1.53-5.75-.65-11.12-2.4-15.96-5.61-.19-.12-.38-.23-.56-.36-.19-.13-.37-.28-.55-.42-1.76-1.3-3.32-2.8-4.64-4.55-.29-.39-.47-.86-.66-1.31-.82-1.89-1.52-3.84-2.49-5.65-.64-1.19-.6-2.21-.06-3.46.29.29.52.52.75.75,2.34,2.41,4.65,4.85,7.02,7.23,1.27,1.28,2.74,2.34,4.49,2.88.98.3,1.98.61,2.99.69,3.4.26,6.78-.05,10.13-.71,3.03-.6,4.81-2.42,5.58-5.37.73-2.8.49-5.6.11-8.41-.06-.44-.12-.88-.19-1.42.36.06.58.09.8.14,1.41.33,2.83.63,4.23,1,1.34.35,2.67.28,3.96-.1,1.57-.47,3.1-1.07,4.65-1.61.2-.07.41-.14.82-.29l4.41-1.62c-.54,3.07-1.1,6.2-1.61,9.12-.53,3-1.02,5.77-1.42,8.03-.61,3.43-1,5.68-1,5.68,0,0-1.72,1.61-3.67,2.84Z"/>
  </g>
</svg>