<?xml version="1.0" encoding="UTF-8"?>
<svg id="Capa_2" data-name="Capa 2" xmlns="http://www.w3.org/2000/svg" viewBox="0 0 1995.64 184.52">
  <defs>
    <style>
      .cls-1 {
        fill: #f9b104;
      }
    </style>
  </defs>
  <g id="Capa_1-2" data-name="Capa 1">
    <path class="cls-1" d="M1995.64,1.57v175.88c-3.57,1.97-7.63,2.92-12.6,1.15-7.13-2.53-10.43-13.12-19.33-12.51-8.24.58-10.71,8.41-16.4,11.73-5.63,3.29-12.28,3.61-17.98.16-3.45-2.09-6.45-8.69-10.82-10.31-15.59-5.76-16.43,13.52-29.47,13.13-11.66-.35-11.69-12-20.36-13.6-15.85-2.94-13.84,13.99-26.97,13.6-10.65-.32-13.65-12.89-24.19-12.76-10.84.15-8.24,13.17-21.1,13.64-15.9.58-12.54-11.67-19.19-12.85-2.77-.49-11.71-.29-14.33.68-5.94,2.19-6.03,11.89-15.87,12.2-12.42.4-12.24-11.69-22.44-12.72-10.28-1.05-10.65,4.62-15.86,8.97-6.83,5.7-18.37,2.34-24.31-3.05-1.43-1.3-2.16-4.44-4.05-5.03-1.49-.46-10.02-.43-11.97-.2-6.67.8-9.38,12.86-20.1,12.88-9.66.02-12.55-11.6-16.64-13.27-1.88-.77-8.4-.79-10.6-.52-6.35.78-5.76,10.89-15.54,13.36-10.26,2.58-13.95-8.97-20.63-12.45-2.66-1.39-12.5-1.33-15.61-.36-6.34,1.96-6.63,12.61-17.68,12.38-12.46-.25-12.55-14.93-26.9-13.6-11.35,1.05-8.18,14-20.45,13.61-5.23-.16-8.44-3.53-11.54-6.8-1.11-3.61-2.52-7.02-7.64-7.77-2.7-.4-5.19.82-7.72,2.64-2.27.98-3.96,2.59-5.49,4.36-4.72,3.74-10.09,7.07-17.45,4.46-7.13-2.53-10.42-13.12-19.32-12.51-8.24.58-10.71,8.41-16.4,11.73-5.63,3.29-12.28,3.61-17.98.16-3.46-2.09-6.46-8.69-10.82-10.31-15.59-5.76-16.43,13.52-29.47,13.13-11.66-.35-11.69-12-20.36-13.6-15.85-2.94-13.85,13.99-26.98,13.6-6.31-.19-9.94-4.69-14.04-8.29-1.11-2.62-2.84-4.79-6.8-5.37-1.81-.27-3.53.2-5.23,1.08-3.33.6-5.16,2.66-6.82,4.99-5.01,4.08-10.65,8.21-18.6,5.39-7.13-2.53-10.42-13.12-19.32-12.51-3.2.23-5.53,1.55-7.53,3.28-.16.04-.32.09-.45.14-3.08,1.13-4.59,4.28-6.7,7.09-.56.45-1.12.87-1.73,1.22-5.18,3.03-11.22,3.53-16.6.91-2.87-2.37-4.84-5.58-7.82-7.68-1.33-1.49-2.77-2.78-4.39-3.38-15.06-5.56-16.36,12.23-28.18,13.1-3.66-.44-7.34-1.86-10.32-3.78-3.77-3.66-5.8-8.77-11.33-9.79-15.86-2.94-13.85,13.99-26.98,13.6-6.1-.18-9.68-4.39-13.63-7.92-1.22-1.7-2.34-3.09-3.56-3.59-.57-.24-1.56-.4-2.72-.51-1.29-.47-2.69-.76-4.28-.74-1.56.03-2.84.32-3.93.8-4.29.79-5.33,5.99-9.08,9.79-1.85,1.67-4.29,2.91-8.08,3.05-2.36.08-4.28-.12-5.88-.52-3.51-1.96-6.15-5.69-9.03-8.57-1.04-1.86-2.15-3.38-4.28-3.76-1.35-.24-4.19-.31-7.04-.21-3.21-.04-6.49.21-8.06.7-6.14,1.9-6.63,11.93-16.71,12.34-10.73-.67-11.09-11.59-20.71-12.66-1.95-.78-4.26-1.17-7.15-.9-9.23.85-8.86,9.56-14.98,12.59-4.69.78-9.97-.58-14.18-2.95-2.13-1.94-3.98-4.22-6.07-6-.53-.86-1.12-1.6-1.94-1.86-.22-.07-.61-.12-1.09-.17-1.28-.62-2.68-.99-4.3-.94-1.61.04-3,.33-4.23.78-1.04.03-1.89.07-2.36.13-6.66.8-9.36,12.86-20.09,12.88-1.1.01-2.09-.16-3.03-.42-2.06-.9-3.89-2.18-5.63-3.58-3.43-3.52-5.48-8.25-7.98-9.27-1.89-.77-8.4-.79-10.61-.52-5.49.68-5.8,8.31-12.09,11.96-2.67,1.14-5.66,1.71-8.55,1.51-6.62-1.55-10.08-9.73-15.52-12.56-2.66-1.39-12.51-1.33-15.62-.36-6.33,1.96-6.62,12.61-17.67,12.38-12.47-.25-12.56-14.93-26.9-13.6-11.35,1.05-8.18,14-20.45,13.61-5.22-.16-8.44-3.52-11.53-6.78-1.11-3.62-2.52-7.04-7.65-7.79-2.38-.36-4.6.56-6.82,2.02-.88.27-1.64.76-2.35,1.37-1.57.96-2.86,2.23-4.04,3.6-4.73,3.74-10.09,7.08-17.45,4.47-7.13-2.53-10.43-13.12-19.32-12.51-8.25.58-10.72,8.41-16.41,11.73-5.63,3.29-12.28,3.61-17.97.16-3.46-2.09-6.46-8.69-10.83-10.31-15.59-5.76-16.43,13.52-29.46,13.13-11.67-.35-11.69-12-20.36-13.6-15.86-2.94-13.85,13.99-26.98,13.6-10.65-.32-13.65-12.89-24.19-12.76-10.84.15-8.23,13.17-21.1,13.64-15.9.58-12.54-11.67-19.19-12.85-2.76-.49-11.7-.29-14.33.68-5.94,2.19-6.03,11.89-15.87,12.2-12.41.4-12.23-11.69-22.44-12.72-10.27-1.05-10.64,4.62-15.86,8.97-6.82,5.7-18.37,2.34-24.31-3.05-1.43-1.3-2.15-4.44-4.05-5.03-1.48-.46-10.02-.43-11.97-.2-6.66.8-9.38,12.86-20.09,12.88-9.66.02-12.55-11.6-16.65-13.27-1.88-.77-8.4-.79-10.6-.52-6.35.78-5.74,10.89-15.54,13.36-10.25,2.58-13.95-8.97-20.62-12.45-2.67-1.39-12.51-1.33-15.62-.36-6.34,1.96-6.62,12.61-17.67,12.38-12.47-.25-12.56-14.93-26.9-13.6-11.36,1.05-8.18,14-20.46,13.61-10.34-.32-12.78-13.19-22.1-12.94-12.5.33-11.61,14.93-24.12,14.61-11.05-.28-15.33-12.28-25.25-12.8-9.15-.48-7.22,2.75-11.62,6.93-5.2,4.94-15.17,6.83-21.2,1.88-5.04-4.14-3.43-10.55-13.54-10.56-14.3-.03-12.63,12.33-23.64,15.12-14.19,3.61-16.33-11.03-25.79-12.33-11.52-1.59-8.87,7.72-15.26,10.74-5.24,2.48-15.82,1.46-20.47-2.07-6.1-4.64-3.35-13.81-15.37-11.28-5.16,1.09-7.04,9.32-10.08,11.43-1.55,1.08-11.12,4.09-13.28,4-8.05-.32-8.38-7.31-12.49-11.57V3.58c13.95-.08,9.49,14.34,20.97,14.8,2.14.09,11.56-2.93,13.09-4,3-2.11,4.86-10.34,9.93-11.43,11.84-2.53,9.14,6.64,15.15,11.28,4.58,3.53,15,4.55,20.18,2.07,6.3-3.02,3.68-12.33,15.05-10.74,9.32,1.3,11.43,15.94,25.41,12.33,10.85-2.79,9.22-15.15,23.3-15.13,9.97.02,8.38,6.43,13.36,10.57,5.93,4.95,15.76,3.06,20.9-1.88,4.32-4.18,2.42-7.41,11.45-6.93,9.78.52,14,12.52,24.89,12.8,12.33.32,11.46-14.28,23.77-14.61,9.19-.25,11.62,12.62,21.81,12.94,12.1.39,8.97-12.56,20.16-13.61,14.14-1.33,14.22,13.35,26.51,13.6,10.89.23,11.17-10.42,17.43-12.38,3.06-.97,12.77-1.03,15.4.36,6.58,3.48,10.22,15.03,20.33,12.44,9.64-2.46,9.04-12.57,15.3-13.35,2.18-.27,8.61-.26,10.46.52,4.04,1.67,6.88,13.29,16.4,13.27,10.56-.02,13.23-12.08,19.81-12.88,1.92-.23,10.33-.26,11.8.2,1.87.59,2.57,3.73,3.98,5.03,5.86,5.39,17.25,8.75,23.97,3.05,5.15-4.35,5.5-10.02,15.63-8.98,10.06,1.04,9.88,13.13,22.11,12.73,9.7-.31,9.79-10.01,15.64-12.2,2.58-.97,11.4-1.17,14.13-.68,6.56,1.18,3.24,13.43,18.91,12.85,12.68-.47,10.11-13.49,20.8-13.64,10.39-.14,13.35,12.44,23.83,12.76,12.95.39,10.98-16.54,26.6-13.6,8.55,1.6,8.57,13.25,20.08,13.6,12.85.39,13.68-18.89,29.04-13.13,4.3,1.62,7.26,8.22,10.67,10.31,5.62,3.45,12.17,3.13,17.73-.16,5.61-3.32,8.04-11.15,16.18-11.73,8.76-.61,12.01,9.98,19.04,12.51,7.25,2.61,12.54-.73,17.2-4.47,1.16-1.37,2.42-2.64,3.98-3.6.69-.61,1.45-1.1,2.31-1.37,2.19-1.47,4.38-2.38,6.73-2.02,5.05.75,6.45,4.17,7.54,7.79,3.05,3.26,6.21,6.62,11.36,6.78,12.1.39,8.97-12.56,20.16-13.61,14.14-1.33,14.23,13.35,26.52,13.6,10.89.23,11.17-10.42,17.42-12.38,3.06-.97,12.77-1.03,15.4.36,5.36,2.83,8.77,11.01,15.3,12.56,2.84.2,5.8-.37,8.43-1.51,6.2-3.65,6.5-11.28,11.92-11.96,2.17-.27,8.61-.26,10.45.52,2.47,1.02,4.5,5.75,7.87,9.27,1.72,1.4,3.51,2.68,5.55,3.58.92.26,1.9.43,2.99.42,10.56-.02,13.23-12.08,19.8-12.88.46-.06,1.3-.1,2.33-.13,1.21-.46,2.57-.74,4.16-.78,1.6-.05,2.98.32,4.25.94.47.05.84.1,1.06.17.81.26,1.4,1,1.93,1.86,2.04,1.78,3.88,4.06,5.97,6,4.15,2.37,9.35,3.73,13.98,2.95,6.04-3.03,5.68-11.74,14.77-12.59,2.85-.27,5.13.12,7.05.9,9.48,1.07,9.84,11.99,20.42,12.66,9.94-.41,10.42-10.44,16.48-12.34,1.55-.49,4.78-.74,7.94-.7,2.81-.1,5.61-.03,6.94.21,2.1.38,3.19,1.9,4.22,3.76,2.84,2.88,5.44,6.61,8.91,8.57,1.58.4,3.47.6,5.8.52,3.74-.14,6.15-1.38,7.97-3.05,3.69-3.8,4.72-9,8.95-9.79,1.08-.48,2.34-.78,3.88-.8,1.57-.02,2.95.27,4.22.74,1.15.11,2.12.27,2.68.51,1.21.5,2.31,1.89,3.51,3.59,3.88,3.53,7.42,7.73,13.43,7.92,12.94.39,10.97-16.54,26.6-13.6,5.46,1.02,7.45,6.13,11.16,9.79,2.95,1.92,6.56,3.34,10.18,3.78,11.66-.87,12.94-18.66,27.78-13.1,1.59.6,3,1.89,4.32,3.38,2.93,2.1,4.87,5.31,7.7,7.68,5.3,2.62,11.25,2.12,16.37-.91.6-.35,1.16-.77,1.7-1.22,2.08-2.81,3.57-5.96,6.6-7.09.14-.05.29-.1.46-.14,1.95-1.73,4.25-3.05,7.41-3.28,8.77-.61,12.01,9.98,19.05,12.51,7.84,2.82,13.39-1.31,18.32-5.39,1.64-2.33,3.45-4.39,6.73-4.99,1.68-.88,3.37-1.35,5.17-1.08,3.9.58,5.61,2.75,6.7,5.37,4.05,3.6,7.62,8.1,13.85,8.29,12.94.39,10.97-16.54,26.6-13.6,8.54,1.6,8.57,13.25,20.06,13.6,12.86.39,13.69-18.89,29.06-13.13,4.3,1.62,7.26,8.22,10.67,10.31,5.62,3.45,12.17,3.13,17.73-.16,5.61-3.32,8.04-11.15,16.17-11.73,8.77-.61,12.01,9.98,19.05,12.51,7.24,2.61,12.54-.72,17.19-4.46,1.49-1.77,3.17-3.38,5.41-4.36,2.49-1.82,4.94-3.04,7.61-2.64,5.04.75,6.43,4.16,7.52,7.77,3.06,3.27,6.23,6.64,11.38,6.8,12.1.39,8.97-12.56,20.16-13.61,14.14-1.33,14.22,13.35,26.51,13.6,10.89.23,11.17-10.42,17.43-12.38,3.06-.97,12.77-1.03,15.4.36,6.58,3.48,10.22,15.03,20.33,12.44,9.64-2.46,9.04-12.57,15.31-13.35,2.17-.27,8.6-.26,10.45.52,4.04,1.67,6.88,13.29,16.4,13.27,10.56-.02,13.23-12.08,19.81-12.88,1.92-.23,10.33-.26,11.8.2,1.87.59,2.57,3.73,3.98,5.03,5.86,5.39,17.25,8.75,23.97,3.05,5.15-4.35,5.5-10.02,15.63-8.98,10.06,1.04,9.88,13.13,22.11,12.73,9.7-.31,9.78-10.01,15.64-12.2,2.58-.97,11.4-1.17,14.13-.68,6.56,1.18,3.24,13.43,18.91,12.85,12.67-.47,10.11-13.49,20.8-13.64,10.39-.14,13.35,12.44,23.83,12.76,12.95.39,10.98-16.54,26.6-13.6,8.55,1.6,8.57,13.25,20.07,13.6,12.85.39,13.68-18.89,29.04-13.13,4.3,1.62,7.26,8.22,10.67,10.31,5.62,3.45,12.17,3.13,17.73-.16,5.61-3.32,8.04-11.15,16.18-11.73,8.76-.61,12.01,9.98,19.04,12.51,14.31,5.15,21-12.84,30.22-11.46.73.11,1.38.27,1.97.49Z"/>
  </g>
</svg>