<?xml version="1.0" encoding="UTF-8"?>
<svg id="Capa_2" data-name="Capa 2" xmlns="http://www.w3.org/2000/svg" viewBox="0 0 23.27 33.44">
  <defs>
    <style>
      .cls-1 {
        fill: #db0812;
      }
    </style>
  </defs>
  <g id="Capa_1-2" data-name="Capa 1">
    <path class="cls-1" d="M11.59,33.44c-2.31-3.66-4.6-7.25-6.86-10.86-1.1-1.76-2.18-3.54-3.22-5.35C-2.55,10.21,2.01,1.1,10.08.1c8.83-1.1,15.58,7.38,12.38,15.64-.67,1.74-1.75,3.33-2.74,4.92-2.56,4.13-5.18,8.22-7.77,12.33-.08.13-.19.25-.35.46ZM11.7,6.49c-2.86-.02-5.14,2.19-5.18,5.02-.04,2.86,2.26,5.21,5.11,5.23,2.78.02,5.12-2.31,5.13-5.11.02-2.84-2.23-5.13-5.06-5.14Z"/>
  </g>
</svg>