<?xml version="1.0" encoding="UTF-8"?>
<svg id="Capa_2" data-name="Capa 2" xmlns="http://www.w3.org/2000/svg" viewBox="0 0 1005.78 568.18">
  <defs>
    <style>
      .cls-1 {
        font-family: PoplarStd, 'Poplar Std';
        font-size: 107.93px;
      }

      .cls-1, .cls-2 {
        fill: #781616;
      }

      .cls-3 {
        fill: #db0812;
      }
    </style>
  </defs>
  <g id="Capa_1-2" data-name="Capa 1">
    <g>
      <g>
        <g>
          <path class="cls-3" d="M0,113.77c0-3.17,1.58-5.38,4.43-5.38h73.77c14.56,0,61.42,10.45,61.42,70.29,0,29.44-26.28,58.57-56.67,58.57-15.51,0-17.1,0-17.1,3.8v100.36c0,2.53-1.9,4.43-5.38,4.43H5.07c-2.85,0-5.07-2.53-5.07-5.7V113.77ZM65.85,196.4c0,1.27.95,3.48,3.17,3.48,4.75,0,6.65-4.12,6.65-10.45v-12.98c0-5.07-2.53-8.55-6.65-8.55-.95,0-1.58,0-2.22.32-.63.32-.95,1.58-.95,2.53v25.64Z"/>
          <path class="cls-3" d="M230.8,108.39c2.22,0,3.8,1.9,4.12,4.12l43.37,226.37c.63,3.48-.95,6.97-4.43,6.97h-51.29c-1.9,0-3.8-1.27-4.11-3.17l-6.33-47.49c-.32-1.58-1.58-2.53-3.17-2.53h-17.1c-1.27,0-2.53,1.27-2.85,3.17l-6.02,46.54c-.32,2.22-2.53,3.48-4.12,3.48h-52.24c-2.85,0-4.43-2.22-3.8-5.38l42.42-228.27c.32-1.58,1.9-3.8,3.8-3.8h61.74ZM202.94,227.75c-.63-4.43-1.27-7.28-2.22-7.28s-1.58,2.22-2.22,7.28l-4.11,30.08c-.32,1.58.32,3.17,1.9,3.17,10.13,0,11.08,0,10.76-2.85l-4.12-30.39Z"/>
          <path class="cls-3" d="M279.23,198.94c0-57.62,26.91-91.18,70.29-91.18,46.22,0,70.6,39.26,70.6,84.85,0,8.55,0,9.5-2.85,9.5l-58.57,2.22c-2.85,0-5.7-2.53-5.7-6.33v-19.95c0-4.43-2.53-6.02-5.07-6.02s-5.07,2.22-5.07,5.7v98.46c0,3.17,2.22,5.38,5.07,5.38,3.17,0,5.07-2.53,5.07-5.7v-31.98c0-1.9,1.27-4.75,3.8-4.43l59.84,2.22c1.58,0,2.53,1.27,2.53,2.53,0,76.3-31.34,102.58-71.24,102.58-44.01,0-68.7-39.58-68.7-84.85v-63Z"/>
          <path class="cls-3" d="M494.2,280.3c-.32-1.58-.95-2.22-1.58-2.22s-.95.95-.95,2.53v61.1c0,1.9-1.9,4.12-4.11,4.12h-52.87c-1.9,0-3.8-2.22-3.8-4.75V111.55c0-1.58,1.27-3.17,2.85-3.17h53.82c2.53,0,4.11,1.27,4.11,3.17v55.09c0,1.27.32,2.22.95,2.22s1.27-.63,1.9-2.22l12.35-55.41c.63-1.58,1.9-2.85,3.48-2.85h55.72c1.27,0,2.22.95,2.22,2.53,0,.63,0,1.27-.32,1.9l-40.21,104.8c-.63,1.27-.95,3.48-.95,4.12s.32,2.53.63,3.48l41.47,117.46c.63,1.9,0,3.17-1.9,3.17h-58.26c-1.27,0-2.22-.95-2.53-2.53l-12.03-63Z"/>
        </g>
        <g>
          <path class="cls-3" d="M650.45,254.4c0,13.5-4.18,22.82-8.56,27.57-.19.19-.38.38-.38.76,0,2.47,12.93,9.32,12.93,9.89,0,1.71-6.84,9.32-16.16,12.55-1.52.38-2.85.76-4.18.76-4.94,0-9.7-3.23-12.93-8.75,0-.19-.38-.38-.57-.38-2.85,0-7.04,1.33-9.7,1.33-20.92,0-39.36-14.26-39.36-43.73v-56.28c0-29.47,18.25-43.54,39.36-43.54s39.55,14.07,39.55,43.54v56.28ZM607.68,254.02c0,2.85.76,4.94,3.04,4.94,2.09,0,3.04-2.09,3.04-5.13v-55.14c0-2.47-.95-4.94-3.04-4.94-1.9,0-3.04,2.28-3.04,4.94v55.33Z"/>
          <path class="cls-3" d="M690.95,154.96c1.14,0,2.09.76,2.09,2.09v96.58c0,2.47.95,4.18,3.23,4.18s3.23-1.71,3.23-3.99v-96.97c0-.95.95-1.9,2.09-1.9h32.13c.95,0,2.09.57,2.09,1.9v101.91c0,20.15-14.45,38.79-39.55,38.79s-39.55-18.82-39.55-38.79v-101.72c0-1.33.76-2.09,1.9-2.09h32.32Z"/>
          <path class="cls-3" d="M743.42,157.44c0-1.14,1.14-2.47,2.47-2.47h67.49c1.14,0,1.9.95,1.9,2.09v34.22c0,1.14-.95,1.9-2.09,1.9h-31.75c-.76,0-1.33.57-1.33,1.33v10.65c0,.76.76,1.33,1.33,1.33h15.02c.76,0,1.33.57,1.33,1.33v34.6c0,.95-.76,1.71-1.52,1.71h-15.4c-.76,0-1.33.57-1.33,1.52v11.22c0,.76.57,1.33,1.14,1.33h32.89c1.33,0,2.09.95,2.09,1.9v35.36c0,1.14-.95,2.09-2.09,2.09h-68.07c-1.14,0-2.09-1.14-2.09-2.47v-137.65Z"/>
          <path class="cls-3" d="M867.94,297.56c-1.33,0-2.66-1.14-2.66-2.66v-99.25c0-1.33-1.14-2.28-2.47-2.28h-19.01c-1.14,0-2.47-1.52-2.47-2.66v-33.84c0-1.14.57-1.9,1.71-1.9h81.37c1.33,0,2.47.76,2.47,2.28v33.46c0,1.52-1.14,2.66-2.66,2.66h-19.01c-1.33,0-2.28.95-2.28,2.66v99.06c0,1.33-1.14,2.47-2.66,2.47h-32.32Z"/>
          <path class="cls-3" d="M933.53,157.44c0-1.14,1.14-2.47,2.47-2.47h67.49c1.14,0,1.9.95,1.9,2.09v34.22c0,1.14-.95,1.9-2.09,1.9h-31.75c-.76,0-1.33.57-1.33,1.33v10.65c0,.76.76,1.33,1.33,1.33h15.02c.76,0,1.33.57,1.33,1.33v34.6c0,.95-.76,1.71-1.52,1.71h-15.4c-.76,0-1.33.57-1.33,1.52v11.22c0,.76.57,1.33,1.14,1.33h32.89c1.33,0,2.09.95,2.09,1.9v35.36c0,1.14-.95,2.09-2.09,2.09h-68.07c-1.14,0-2.09-1.14-2.09-2.47v-137.65Z"/>
        </g>
      </g>
      <g>
        <path class="cls-2" d="M282.91,558.12v-8.76c11.68-57.11,63.6-158.34,89.55-214.48,4.22-8.76,7.79-17.85,11.36-26.93.65-1.95.97-3.57.97-5.19v-.65c0-4.87-3.24-7.79-7.46-8.11-2.6,0-5.52.97-8.76,2.92l-9.73,6.81c-33.74,26.61-63.6,58.73-92.47,90.2-14.6,15.9-28.88,31.8-43.15,47.7-1.3,1.3-2.92,3.25-4.22,4.22-.65.65-.97.97-1.3.97h-.65c-.32-.32-.32-.65-.32-.97,0-1.3,1.3-3.57,1.62-4.54,19.47-40.56,36.99-75.93,53.86-118.11,1.3-2.92,2.27-7.46,2.6-12.01,0-6.17-1.62-12.33-7.79-12.33-.97,0-2.6,0-4.22.65-15.57,4.22-36.99,25.31-48.35,36.02-.65,1.3-1.95,2.27-3.24,2.27-.97,0-1.62-1.3-2.6-3.24-6.81-18.17-24.01-23.04-41.53-23.04h-5.84c-13.3,0-26.93,1.62-39.59,4.22-5.19.97-7.14,3.57-7.14,5.84v.65c0,2.27,1.62,4.22,3.57,4.54.32.32.97.32,1.62.32,3.24,0,6.81-.97,9.08-1.95,7.79-2.92,22.06-4.54,35.37-4.54h5.84c6.81.32,12.98.97,16.87,2.6,8.76,3.57,13.63,11.03,13.63,18.82v.65c-.32,4.54-1.95,9.09-5.52,12.98-27.58,32.12-53.86,63.6-72.68,97.99-12.65,23.69-16.55,35.69-16.87,41.86,0,3.89,1.3,5.52,2.92,6.49.65.32.97.32,1.62.32h.32c5.84,0,16.87-10.38,34.72-36.34,23.36-33.75,52.56-78.85,61.97-106.75,1.95-5.84,46.72-49.97,55.49-49.97,1.62,0,2.6,1.3,2.6,3.24v.97c0,3.89-2.27,11.03-6.49,20.12l-56.13,121.68c-.65,1.3-.97,2.92-.97,4.22,0,1.62.32,2.92,1.3,4.22.97,1.62,4.22,2.92,6.16,2.92,3.24,0,7.14-3.57,9.08-5.84,8.11-8.44,15.9-17.2,23.69-25.96,22.71-25.63,71.06-79.17,108.37-111.62,5.84-5.19,17.85-17.2,22.06-17.2.97,0,1.3.32,1.3,1.62,0,1.95-.97,5.52-3.57,11.03-31.15,65.22-80.47,159.32-96.04,229.73-.32,1.62-.65,3.24-.65,4.87v.65c0,9.73,5.84,13.95,11.03,14.28,2.92,0,5.52-1.3,6.49-3.89.32-.32.32-.65.32-1.3v-.32c0-2.92-5.52-3.89-8.11-4.54ZM182.65,387.78c-16.55,30.82-36.67,59.7-57.43,88.58-.32.65-3.89,5.84-4.54,5.84v-1.62c14.6-33.75,34.72-63.27,58.41-91.18.32-.65,3.24-4.22,4.22-4.22.32,0,.32.32.32.65,0,.65-.65,1.62-.97,1.95Z"/>
        <path class="cls-2" d="M896.79,416.33c-.32,0-.97.32-1.62.65-4.54,1.95-25.96,11.68-49.64,27.58-2.6,1.62-4.87,2.92-5.84,2.92-3.89-26.28-12-36.99-13.63-46.08,0-2.27.65-4.22,1.62-6.16,3.89-5.52,4.54-8.11,4.54-10.06,0-2.27-1.95-4.87-4.54-4.87-1.95,0-4.22,1.3-6.81,4.54-4.22,5.84-54.51,79.82-71.71,79.82-2.27,0-4.22-1.3-5.19-3.89-.65-.97-.65-2.6-.65-4.22,0-12.01,9.73-37.64,10.71-44.13.32-1.62.65-2.6.65-3.57,0-3.89-2.27-3.24-2.27-8.11v-3.24c.32-1.3.32-2.27.32-3.57,0-8.11-4.87-13.3-12-13.3-21.72,0-50.99,38.95-62.56,59.3-3.88,1.08-8.29,1.7-11.09,1.7-9.73,0-18.49-3.89-24.01-12.65-.97-1.62-1.62-2.92-1.62-4.22,0-.97.65-2.27,1.3-3.89,5.19-10.06,10.38-21.74,13.3-32.77.65-3.24.97-5.84.97-8.11,0-7.79-3.57-12.01-8.11-12.01-3.57,0-7.46,2.27-10.38,7.46-6.81,10.71-10.71,24.01-11.03,36.67v1.95c0,4.22.32,6.49.32,8.44,0,3.89-1.3,5.84-10.06,17.2-4.87,7.14-25.96,33.75-35.37,33.75-.65,0-.97,0-1.62-.32-1.95-.65-2.92-3.89-2.92-8.11,0-8.11,3.24-20.77,7.14-33.1,5.19-16.55,13.3-31.8,13.95-33.42.32-.32.32-.65.32-.97,0-2.92-4.22-5.84-7.46-5.84-1.95,0-3.57.65-4.54,2.6-2.82,6.97-6.68,16.5-10.26,26.83-17.34,13.54-64.29,46.5-84.16,46.5-5.52,0-8.76-2.6-8.76-8.76,0-.65,0-1.62.32-2.6.32-3.25.65-5.52,4.22-7.46,15.9-8.76,52.89-34.07,52.89-53.86,0-4.54-2.6-7.14-7.14-7.14-13.09,0-29.66,15.09-42.32,32.31-14.07,11.86-44.79,36.81-57.93,36.81-.65,0-1.3-.32-1.95-.32-1.3-.32-1.95-2.27-1.95-5.52,0-11.36,6.81-36.34,7.14-37.96v-.32c0-3.89-3.57-6.81-7.79-6.81-1.95,0-4.22.65-6.16,2.92-13.3,13.95-28.55,32.12-43.48,47.37-6.49,6.81-11.68,12.01-13.63,12.01-.97,0-1.3-.65-1.3-1.95,0-2.27.97-6.81,3.24-13.63,6.16-17.85,15.9-36.02,27.9-48.35.97-1.3,1.3-2.6,1.3-3.89,0-2.92-1.95-5.52-4.87-5.52-2.6,0-5.84,1.62-9.08,6.81-21.42,31.15-28.88,53.54-28.88,66.19,0,8.76,3.24,13.3,8.44,13.3,2.27,0,5.19-.97,8.11-3.24,13.3-10.38,37.64-38.29,49.97-53.21.65-.65,1.95-1.95,2.92-1.95-.97,5.19-4.22,17.52-4.22,27.58,0,9.41,2.6,17.52,11.36,17.52.97,0,1.95-.32,2.92-.32,10.84-1.81,29.86-15.03,45.34-27.16-4.19,8.34-6.73,15.97-6.73,21.32,0,9.09,6.49,15.9,15.57,15.9,19.38,0,59.18-23.87,84.85-44.59-3.28,11.14-5.69,22.44-5.69,31.93,0,3.24.32,6.16.65,8.76,1.95,7.79,6.81,10.71,12.33,10.71,5.84,0,12.65-3.57,17.2-7.46,17.85-15.57,20.44-19.79,34.72-38.61.97-1.62,1.62-2.6,2.6-2.6.65,0,1.3.65,2.6,1.62,8.11,8.76,17.85,12.98,29.2,12.98h2.27c1.32-.07,2.75-.23,4.25-.47-2.05,5.14-2.95,9.35-2.95,12.48,0,5.19,2.6,8.11,6.81,8.11,4.54,0,11.68-3.24,19.47-10.06l40.56-35.37c.32-.32.65-.32.97-.32,1.3,0,1.62.65,1.62,1.95-3.24,9.41-6.81,21.74-6.81,31.8,0,8.44,2.92,16.22,12.33,16.22h.32c22.39,0,55.16-49.64,67.81-63.92,1.3-1.3,2.27-1.95,2.92-1.95,1.95,0,3.24,3.57,4.87,7.46,6.49,13.63,7.46,23.36,7.46,29.85v2.92c-.32,7.14-7.79,11.36-24.34,24.66-3.25,2.6-4.54,5.84-4.54,8.44,0,.97.32,2.27.65,3.25,1.3,2.92,3.25,4.22,5.84,4.22,8.44,0,22.71-14.6,28.55-23.04,11.03-14.93,52.24-37.64,64.25-43.15.97-.32,1.3-1.62,1.3-2.92,0-2.6-1.3-4.22-3.57-4.22ZM512.3,410.81c8.11-7.46,13.3-11.03,15.25-11.03.65,0,.97.32.97.97,0,2.27-3.57,8.11-11.03,16.22l-16.55,15.25c-.65.33-7.14,5.19-8.76,5.19-.32,0-.65-.32-.65-.32,0-.32.32-.97.65-1.62,5.84-8.76,12.65-17.52,20.12-24.66ZM638.51,407.89q-.32.32-.65.32v-.32c0-3.24,3.89-16.87,3.89-17.52,1.3-3.57,2.92-5.84,3.89-5.84.32,0,.32.32.32.97,0,.97-.32,2.6-1.3,5.52l-6.16,16.87ZM696.26,448.78c-8.11,6.17-12.65,9.41-14.28,9.41-.65,0-.97-.32-.97-.97,0-1.57,1.89-5.44,5.33-11.46.89-.48,1.72-.98,2.46-1.52,1.3-1.3,1.95-2.27,1.95-3.57,0-.58-.19-1.15-.49-1.68,10.66-18.77,25.79-36.95,43.97-46.67,1.95-.97,3.57-1.62,4.87-1.62,3.89,0,4.22,7.79,4.22,10.71,0,2.27-.65,4.87-2.27,6.49-14.6,13.95-28.88,28.23-44.78,40.88Z"/>
      </g>
      <text class="cls-1" transform="translate(365.34 89.58)"><tspan x="0" y="0">PROMO</tspan></text>
    </g>
  </g>
</svg>