<?xml version="1.0" encoding="UTF-8"?>
<svg id="Capa_2" data-name="Capa 2" xmlns="http://www.w3.org/2000/svg" viewBox="0 0 1972.93 184.52">
  <defs>
    <style>
      .cls-1 {
        fill: #f9b104;
      }
    </style>
  </defs>
  <g id="Capa_1-2" data-name="Capa 1">
    <path class="cls-1" d="M1972.93,1.57v175.88c-3.53,1.97-7.55,2.92-12.46,1.15-7.05-2.53-10.31-13.12-19.11-12.51-8.15.58-10.59,8.41-16.22,11.73-5.56,3.29-12.14,3.61-17.78.16-3.41-2.09-6.38-8.69-10.69-10.31-15.41-5.76-16.25,13.52-29.14,13.13-11.53-.35-11.56-12-20.13-13.6-15.67-2.94-13.68,13.99-26.67,13.6-10.53-.32-13.49-12.89-23.91-12.76-10.71.15-8.15,13.17-20.86,13.64-15.72.58-12.39-11.67-18.97-12.85-2.73-.49-11.58-.29-14.17.68-5.87,2.19-5.96,11.89-15.69,12.2-12.28.4-12.1-11.69-22.18-12.72-10.17-1.05-10.53,4.62-15.68,8.97-6.76,5.7-18.16,2.34-24.04-3.05-1.41-1.3-2.13-4.44-4-5.03-1.48-.46-9.9-.43-11.83-.2-6.6.8-9.27,12.86-19.87,12.88-9.55.02-12.4-11.6-16.45-13.27-1.86-.77-8.31-.79-10.48-.52-6.28.78-5.69,10.89-15.36,13.36-10.14,2.58-13.79-8.97-20.4-12.45-2.63-1.39-12.36-1.33-15.43-.36-6.27,1.96-6.56,12.61-17.48,12.38-12.32-.25-12.4-14.93-26.59-13.6-11.22,1.05-8.09,14-20.22,13.61-5.17-.16-8.34-3.53-11.41-6.8-1.1-3.61-2.49-7.02-7.55-7.77-2.67-.4-5.13.82-7.63,2.64-2.25.98-3.92,2.59-5.43,4.36-4.67,3.74-9.98,7.07-17.25,4.46-7.05-2.53-10.3-13.12-19.1-12.51-8.15.58-10.59,8.41-16.21,11.73-5.56,3.29-12.14,3.61-17.78.16-3.42-2.09-6.39-8.69-10.69-10.31-15.41-5.76-16.25,13.52-29.14,13.13-11.53-.35-11.56-12-20.13-13.6-15.67-2.94-13.69,13.99-26.68,13.6-6.24-.19-9.83-4.69-13.88-8.29-1.1-2.62-2.81-4.79-6.72-5.37-1.79-.27-3.49.2-5.17,1.08-3.29.6-5.1,2.66-6.75,4.99-4.95,4.08-10.52,8.21-18.39,5.39-7.05-2.53-10.3-13.12-19.1-12.51-3.17.23-5.47,1.55-7.44,3.28-.16.04-.32.09-.44.14-3.04,1.13-4.54,4.28-6.62,7.09-.55.45-1.11.87-1.71,1.22-5.12,3.03-11.09,3.53-16.42.91-2.84-2.37-4.78-5.58-7.73-7.68-1.32-1.49-2.73-2.78-4.34-3.38-14.88-5.56-16.17,12.23-27.86,13.1-3.62-.44-7.25-1.86-10.2-3.78-3.73-3.66-5.73-8.77-11.2-9.79-15.68-2.94-13.69,13.99-26.68,13.6-6.03-.18-9.57-4.39-13.47-7.92-1.2-1.7-2.31-3.09-3.52-3.59-.56-.24-1.54-.4-2.69-.51-1.28-.47-2.66-.76-4.23-.74-1.54.03-2.81.32-3.89.8-4.24.79-5.27,5.99-8.97,9.79-1.83,1.67-4.24,2.91-7.99,3.05-2.33.08-4.23-.12-5.82-.52-3.47-1.96-6.08-5.69-8.93-8.57-1.02-1.86-2.12-3.38-4.23-3.76-1.33-.24-4.14-.31-6.96-.21-3.18-.04-6.42.21-7.97.7-6.07,1.9-6.56,11.93-16.52,12.34-10.61-.67-10.97-11.59-20.47-12.66-1.93-.78-4.21-1.17-7.07-.9-9.12.85-8.76,9.56-14.81,12.59-4.63.78-9.86-.58-14.02-2.95-2.1-1.94-3.94-4.22-6-6-.53-.86-1.11-1.6-1.92-1.86-.22-.07-.6-.12-1.08-.17-1.27-.62-2.65-.99-4.25-.94-1.59.04-2.97.33-4.18.78-1.02.03-1.87.07-2.33.13-6.59.8-9.26,12.86-19.86,12.88-1.09.01-2.07-.16-3-.42-2.04-.9-3.84-2.18-5.56-3.58-3.39-3.52-5.42-8.25-7.89-9.27-1.87-.77-8.31-.79-10.49-.52-5.43.68-5.73,8.31-11.95,11.96-2.64,1.14-5.6,1.71-8.46,1.51-6.54-1.55-9.97-9.73-15.34-12.56-2.63-1.39-12.37-1.33-15.44-.36-6.26,1.96-6.55,12.61-17.47,12.38-12.33-.25-12.41-14.93-26.59-13.6-11.22,1.05-8.09,14-20.22,13.61-5.16-.16-8.34-3.52-11.4-6.78-1.1-3.62-2.49-7.04-7.56-7.79-2.35-.36-4.55.56-6.75,2.02-.87.27-1.63.76-2.32,1.37-1.55.96-2.83,2.23-3.99,3.6-4.68,3.74-9.98,7.08-17.25,4.47-7.05-2.53-10.31-13.12-19.1-12.51-8.16.58-10.6,8.41-16.23,11.73-5.56,3.29-12.14,3.61-17.77.16-3.42-2.09-6.39-8.69-10.7-10.31-15.41-5.76-16.25,13.52-29.13,13.13-11.54-.35-11.56-12-20.13-13.6-15.68-2.94-13.69,13.99-26.68,13.6-10.53-.32-13.49-12.89-23.91-12.76-10.71.15-8.14,13.17-20.86,13.64-15.72.58-12.39-11.67-18.97-12.85-2.72-.49-11.57-.29-14.17.68-5.87,2.19-5.96,11.89-15.69,12.2-12.27.4-12.09-11.69-22.18-12.72-10.16-1.05-10.51,4.62-15.68,8.97-6.75,5.7-18.16,2.34-24.04-3.05-1.41-1.3-2.12-4.44-4-5.03-1.47-.46-9.9-.43-11.83-.2-6.59.8-9.27,12.86-19.86,12.88-9.55.02-12.4-11.6-16.46-13.27-1.86-.77-8.31-.79-10.48-.52-6.28.78-5.68,10.89-15.36,13.36-10.13,2.58-13.79-8.97-20.38-12.45-2.64-1.39-12.37-1.33-15.44-.36-6.27,1.96-6.55,12.61-17.47,12.38-12.33-.25-12.41-14.93-26.59-13.6-11.23,1.05-8.09,14-20.23,13.61-10.22-.32-12.64-13.19-21.85-12.94-12.36.33-11.47,14.93-23.85,14.61-10.93-.28-15.16-12.28-24.97-12.8-9.05-.48-7.14,2.75-11.49,6.93-5.14,4.94-15,6.83-20.95,1.88-4.98-4.14-3.39-10.55-13.39-10.56-14.13-.03-12.49,12.33-23.37,15.12-14.03,3.61-16.14-11.03-25.49-12.33-11.39-1.59-8.77,7.72-15.09,10.74-5.18,2.48-15.64,1.46-20.24-2.07-6.03-4.64-3.31-13.81-15.19-11.28-5.1,1.09-6.96,9.32-9.97,11.43-1.53,1.08-10.99,4.09-13.13,4-7.96-.32-8.29-7.31-12.35-11.57V3.58c13.79-.08,9.38,14.34,20.73,14.8,2.11.09,11.43-2.93,12.94-4,2.97-2.11,4.8-10.34,9.82-11.43,11.71-2.53,9.04,6.64,14.98,11.28,4.53,3.53,14.83,4.55,19.95,2.07,6.23-3.02,3.64-12.33,14.87-10.74,9.22,1.3,11.3,15.94,25.12,12.33,10.73-2.79,9.11-15.15,23.03-15.13,9.86.02,8.29,6.43,13.21,10.57,5.86,4.95,15.58,3.06,20.66-1.88,4.28-4.18,2.4-7.41,11.32-6.93,9.67.52,13.84,12.52,24.61,12.8,12.19.32,11.33-14.28,23.5-14.61,9.09-.25,11.49,12.62,21.56,12.94,11.96.39,8.87-12.56,19.93-13.61,13.98-1.33,14.06,13.35,26.21,13.6,10.77.23,11.04-10.42,17.23-12.38,3.03-.97,12.63-1.03,15.22.36,6.5,3.48,10.1,15.03,20.1,12.44,9.53-2.46,8.94-12.57,15.13-13.35,2.15-.27,8.51-.26,10.35.52,3.99,1.67,6.8,13.29,16.21,13.27,10.44-.02,13.08-12.08,19.58-12.88,1.9-.23,10.21-.26,11.66.2,1.85.59,2.54,3.73,3.94,5.03,5.8,5.39,17.05,8.75,23.7,3.05,5.09-4.35,5.44-10.02,15.46-8.98,9.94,1.04,9.76,13.13,21.86,12.73,9.59-.31,9.68-10.01,15.47-12.2,2.55-.97,11.27-1.17,13.97-.68,6.48,1.18,3.2,13.43,18.7,12.85,12.53-.47,10-13.49,20.56-13.64,10.27-.14,13.2,12.44,23.56,12.76,12.81.39,10.85-16.54,26.3-13.6,8.46,1.6,8.48,13.25,19.85,13.6,12.7.39,13.52-18.89,28.71-13.13,4.25,1.62,7.18,8.22,10.55,10.31,5.55,3.45,12.03,3.13,17.52-.16,5.54-3.32,7.95-11.15,15.99-11.73,8.66-.61,11.88,9.98,18.82,12.51,7.17,2.61,12.39-.73,17.01-4.47,1.15-1.37,2.4-2.64,3.94-3.6.69-.61,1.44-1.1,2.28-1.37,2.16-1.47,4.33-2.38,6.65-2.02,4.99.75,6.38,4.17,7.45,7.79,3.02,3.26,6.14,6.62,11.23,6.78,11.96.39,8.87-12.56,19.93-13.61,13.98-1.33,14.07,13.35,26.22,13.6,10.77.23,11.04-10.42,17.22-12.38,3.03-.97,12.63-1.03,15.22.36,5.3,2.83,8.67,11.01,15.13,12.56,2.81.2,5.73-.37,8.33-1.51,6.13-3.65,6.43-11.28,11.78-11.96,2.14-.27,8.51-.26,10.33.52,2.44,1.02,4.44,5.75,7.78,9.27,1.7,1.4,3.47,2.68,5.49,3.58.91.26,1.88.43,2.96.42,10.44-.02,13.08-12.08,19.57-12.88.45-.06,1.29-.1,2.3-.13,1.19-.46,2.54-.74,4.12-.78,1.58-.05,2.95.32,4.2.94.46.05.83.1,1.04.17.8.26,1.38,1,1.91,1.86,2.02,1.78,3.83,4.06,5.9,6,4.11,2.37,9.25,3.73,13.82,2.95,5.98-3.03,5.62-11.74,14.6-12.59,2.82-.27,5.07.12,6.97.9,9.37,1.07,9.72,11.99,20.18,12.66,9.83-.41,10.3-10.44,16.29-12.34,1.53-.49,4.73-.74,7.85-.7,2.78-.1,5.54-.03,6.86.21,2.08.38,3.16,1.9,4.17,3.76,2.81,2.88,5.37,6.61,8.8,8.57,1.56.4,3.43.6,5.73.52,3.69-.14,6.08-1.38,7.88-3.05,3.65-3.8,4.67-9,8.85-9.79,1.07-.48,2.31-.78,3.83-.8,1.55-.02,2.91.27,4.17.74,1.14.11,2.1.27,2.65.51,1.19.5,2.28,1.89,3.47,3.59,3.83,3.53,7.34,7.73,13.28,7.92,12.79.39,10.84-16.54,26.3-13.6,5.39,1.02,7.37,6.13,11.03,9.79,2.91,1.92,6.48,3.34,10.06,3.78,11.53-.87,12.79-18.66,27.47-13.1,1.57.6,2.97,1.89,4.28,3.38,2.89,2.1,4.81,5.31,7.61,7.68,5.24,2.62,11.13,2.12,16.18-.91.59-.35,1.15-.77,1.68-1.22,2.06-2.81,3.53-5.96,6.52-7.09.14-.05.29-.1.45-.14,1.93-1.73,4.2-3.05,7.33-3.28,8.67-.61,11.88,9.98,18.83,12.51,7.75,2.82,13.24-1.31,18.12-5.39,1.63-2.33,3.41-4.39,6.65-4.99,1.66-.88,3.34-1.35,5.11-1.08,3.85.58,5.54,2.75,6.62,5.37,4,3.6,7.54,8.1,13.69,8.29,12.79.39,10.84-16.54,26.3-13.6,8.45,1.6,8.48,13.25,19.84,13.6,12.71.39,13.53-18.89,28.72-13.13,4.25,1.62,7.18,8.22,10.55,10.31,5.55,3.45,12.03,3.13,17.52-.16,5.54-3.32,7.95-11.15,15.98-11.73,8.67-.61,11.88,9.98,18.83,12.51,7.16,2.61,12.39-.72,17-4.46,1.48-1.77,3.14-3.38,5.35-4.36,2.46-1.82,4.89-3.04,7.53-2.64,4.98.75,6.35,4.16,7.43,7.77,3.03,3.27,6.15,6.64,11.25,6.8,11.96.39,8.87-12.56,19.93-13.61,13.98-1.33,14.06,13.35,26.21,13.6,10.77.23,11.04-10.42,17.23-12.38,3.03-.97,12.63-1.03,15.22.36,6.5,3.48,10.1,15.03,20.1,12.44,9.53-2.46,8.94-12.57,15.14-13.35,2.14-.27,8.5-.26,10.33.52,3.99,1.67,6.8,13.29,16.21,13.27,10.44-.02,13.08-12.08,19.58-12.88,1.9-.23,10.21-.26,11.67.2,1.85.59,2.54,3.73,3.94,5.03,5.8,5.39,17.05,8.75,23.7,3.05,5.09-4.35,5.44-10.02,15.45-8.98,9.94,1.04,9.76,13.13,21.86,12.73,9.59-.31,9.67-10.01,15.47-12.2,2.55-.97,11.27-1.17,13.97-.68,6.48,1.18,3.2,13.43,18.7,12.85,12.53-.47,10-13.49,20.56-13.64,10.27-.14,13.2,12.44,23.56,12.76,12.81.39,10.85-16.54,26.3-13.6,8.46,1.6,8.48,13.25,19.85,13.6,12.7.39,13.52-18.89,28.71-13.13,4.25,1.62,7.18,8.22,10.55,10.31,5.55,3.45,12.03,3.13,17.52-.16,5.54-3.32,7.95-11.15,15.99-11.73,8.66-.61,11.88,9.98,18.82,12.51,14.15,5.15,20.76-12.84,29.88-11.46.72.11,1.36.27,1.94.49Z"/>
  </g>
</svg>